<?xml version="1.0" encoding="utf-8" standalone="no"?>
<!DOCTYPE svg PUBLIC "-//W3C//DTD SVG 1.1//EN"
  "http://www.w3.org/Graphics/SVG/1.1/DTD/svg11.dtd">
<svg xmlns:xlink="http://www.w3.org/1999/xlink" width="720pt" height="504pt" viewBox="0 0 720 504" xmlns="http://www.w3.org/2000/svg" version="1.1">
 <metadata>
  <rdf:RDF xmlns:dc="http://purl.org/dc/elements/1.1/" xmlns:cc="http://creativecommons.org/ns#" xmlns:rdf="http://www.w3.org/1999/02/22-rdf-syntax-ns#">
   <cc:Work>
    <dc:type rdf:resource="http://purl.org/dc/dcmitype/StillImage"/>
    <dc:date>2023-09-14T20:34:24.510648</dc:date>
    <dc:format>image/svg+xml</dc:format>
    <dc:creator>
     <cc:Agent>
      <dc:title>Matplotlib v3.7.1, https://matplotlib.org/</dc:title>
     </cc:Agent>
    </dc:creator>
   </cc:Work>
  </rdf:RDF>
 </metadata>
 <defs>
  <style type="text/css">*{stroke-linejoin: round; stroke-linecap: butt}</style>
 </defs>
 <g id="figure_1">
  <g id="patch_1">
   <path d="M 0 504 
L 720 504 
L 720 0 
L 0 0 
z
" style="fill: #ffffff"/>
  </g>
  <g id="axes_1">
   <g id="patch_2">
    <path d="M 90 448.56 
L 648 448.56 
L 648 60.48 
L 90 60.48 
z
" style="fill: #ffffff"/>
   </g>
   <g id="matplotlib.axis_1">
    <g id="xtick_1">
     <g id="line2d_1">
      <defs>
       <path id="m8bbb6218c2" d="M 0 0 
L 0 3.5 
" style="stroke: #000000; stroke-width: 0.8"/>
      </defs>
      <g>
       <use xlink:href="#m8bbb6218c2" x="90" y="448.56" style="stroke: #000000; stroke-width: 0.8"/>
      </g>
     </g>
     <g id="text_1">
      <!-- 0.0 -->
      <g transform="translate(82.048438 463.158437) scale(0.1 -0.1)">
       <defs>
        <path id="DejaVuSans-30" d="M 2034 4250 
Q 1547 4250 1301 3770 
Q 1056 3291 1056 2328 
Q 1056 1369 1301 889 
Q 1547 409 2034 409 
Q 2525 409 2770 889 
Q 3016 1369 3016 2328 
Q 3016 3291 2770 3770 
Q 2525 4250 2034 4250 
z
M 2034 4750 
Q 2819 4750 3233 4129 
Q 3647 3509 3647 2328 
Q 3647 1150 3233 529 
Q 2819 -91 2034 -91 
Q 1250 -91 836 529 
Q 422 1150 422 2328 
Q 422 3509 836 4129 
Q 1250 4750 2034 4750 
z
" transform="scale(0.015625)"/>
        <path id="DejaVuSans-2e" d="M 684 794 
L 1344 794 
L 1344 0 
L 684 0 
L 684 794 
z
" transform="scale(0.015625)"/>
       </defs>
       <use xlink:href="#DejaVuSans-30"/>
       <use xlink:href="#DejaVuSans-2e" x="63.623047"/>
       <use xlink:href="#DejaVuSans-30" x="95.410156"/>
      </g>
     </g>
    </g>
    <g id="xtick_2">
     <g id="line2d_2">
      <g>
       <use xlink:href="#m8bbb6218c2" x="201.6" y="448.56" style="stroke: #000000; stroke-width: 0.8"/>
      </g>
     </g>
     <g id="text_2">
      <!-- 0.2 -->
      <g transform="translate(193.648438 463.158437) scale(0.1 -0.1)">
       <defs>
        <path id="DejaVuSans-32" d="M 1228 531 
L 3431 531 
L 3431 0 
L 469 0 
L 469 531 
Q 828 903 1448 1529 
Q 2069 2156 2228 2338 
Q 2531 2678 2651 2914 
Q 2772 3150 2772 3378 
Q 2772 3750 2511 3984 
Q 2250 4219 1831 4219 
Q 1534 4219 1204 4116 
Q 875 4013 500 3803 
L 500 4441 
Q 881 4594 1212 4672 
Q 1544 4750 1819 4750 
Q 2544 4750 2975 4387 
Q 3406 4025 3406 3419 
Q 3406 3131 3298 2873 
Q 3191 2616 2906 2266 
Q 2828 2175 2409 1742 
Q 1991 1309 1228 531 
z
" transform="scale(0.015625)"/>
       </defs>
       <use xlink:href="#DejaVuSans-30"/>
       <use xlink:href="#DejaVuSans-2e" x="63.623047"/>
       <use xlink:href="#DejaVuSans-32" x="95.410156"/>
      </g>
     </g>
    </g>
    <g id="xtick_3">
     <g id="line2d_3">
      <g>
       <use xlink:href="#m8bbb6218c2" x="313.2" y="448.56" style="stroke: #000000; stroke-width: 0.8"/>
      </g>
     </g>
     <g id="text_3">
      <!-- 0.4 -->
      <g transform="translate(305.248438 463.158437) scale(0.1 -0.1)">
       <defs>
        <path id="DejaVuSans-34" d="M 2419 4116 
L 825 1625 
L 2419 1625 
L 2419 4116 
z
M 2253 4666 
L 3047 4666 
L 3047 1625 
L 3713 1625 
L 3713 1100 
L 3047 1100 
L 3047 0 
L 2419 0 
L 2419 1100 
L 313 1100 
L 313 1709 
L 2253 4666 
z
" transform="scale(0.015625)"/>
       </defs>
       <use xlink:href="#DejaVuSans-30"/>
       <use xlink:href="#DejaVuSans-2e" x="63.623047"/>
       <use xlink:href="#DejaVuSans-34" x="95.410156"/>
      </g>
     </g>
    </g>
    <g id="xtick_4">
     <g id="line2d_4">
      <g>
       <use xlink:href="#m8bbb6218c2" x="424.8" y="448.56" style="stroke: #000000; stroke-width: 0.8"/>
      </g>
     </g>
     <g id="text_4">
      <!-- 0.6 -->
      <g transform="translate(416.848438 463.158437) scale(0.1 -0.1)">
       <defs>
        <path id="DejaVuSans-36" d="M 2113 2584 
Q 1688 2584 1439 2293 
Q 1191 2003 1191 1497 
Q 1191 994 1439 701 
Q 1688 409 2113 409 
Q 2538 409 2786 701 
Q 3034 994 3034 1497 
Q 3034 2003 2786 2293 
Q 2538 2584 2113 2584 
z
M 3366 4563 
L 3366 3988 
Q 3128 4100 2886 4159 
Q 2644 4219 2406 4219 
Q 1781 4219 1451 3797 
Q 1122 3375 1075 2522 
Q 1259 2794 1537 2939 
Q 1816 3084 2150 3084 
Q 2853 3084 3261 2657 
Q 3669 2231 3669 1497 
Q 3669 778 3244 343 
Q 2819 -91 2113 -91 
Q 1303 -91 875 529 
Q 447 1150 447 2328 
Q 447 3434 972 4092 
Q 1497 4750 2381 4750 
Q 2619 4750 2861 4703 
Q 3103 4656 3366 4563 
z
" transform="scale(0.015625)"/>
       </defs>
       <use xlink:href="#DejaVuSans-30"/>
       <use xlink:href="#DejaVuSans-2e" x="63.623047"/>
       <use xlink:href="#DejaVuSans-36" x="95.410156"/>
      </g>
     </g>
    </g>
    <g id="xtick_5">
     <g id="line2d_5">
      <g>
       <use xlink:href="#m8bbb6218c2" x="536.4" y="448.56" style="stroke: #000000; stroke-width: 0.8"/>
      </g>
     </g>
     <g id="text_5">
      <!-- 0.8 -->
      <g transform="translate(528.448438 463.158437) scale(0.1 -0.1)">
       <defs>
        <path id="DejaVuSans-38" d="M 2034 2216 
Q 1584 2216 1326 1975 
Q 1069 1734 1069 1313 
Q 1069 891 1326 650 
Q 1584 409 2034 409 
Q 2484 409 2743 651 
Q 3003 894 3003 1313 
Q 3003 1734 2745 1975 
Q 2488 2216 2034 2216 
z
M 1403 2484 
Q 997 2584 770 2862 
Q 544 3141 544 3541 
Q 544 4100 942 4425 
Q 1341 4750 2034 4750 
Q 2731 4750 3128 4425 
Q 3525 4100 3525 3541 
Q 3525 3141 3298 2862 
Q 3072 2584 2669 2484 
Q 3125 2378 3379 2068 
Q 3634 1759 3634 1313 
Q 3634 634 3220 271 
Q 2806 -91 2034 -91 
Q 1263 -91 848 271 
Q 434 634 434 1313 
Q 434 1759 690 2068 
Q 947 2378 1403 2484 
z
M 1172 3481 
Q 1172 3119 1398 2916 
Q 1625 2713 2034 2713 
Q 2441 2713 2670 2916 
Q 2900 3119 2900 3481 
Q 2900 3844 2670 4047 
Q 2441 4250 2034 4250 
Q 1625 4250 1398 4047 
Q 1172 3844 1172 3481 
z
" transform="scale(0.015625)"/>
       </defs>
       <use xlink:href="#DejaVuSans-30"/>
       <use xlink:href="#DejaVuSans-2e" x="63.623047"/>
       <use xlink:href="#DejaVuSans-38" x="95.410156"/>
      </g>
     </g>
    </g>
    <g id="xtick_6">
     <g id="line2d_6">
      <g>
       <use xlink:href="#m8bbb6218c2" x="648" y="448.56" style="stroke: #000000; stroke-width: 0.8"/>
      </g>
     </g>
     <g id="text_6">
      <!-- 1.0 -->
      <g transform="translate(640.048437 463.158437) scale(0.1 -0.1)">
       <defs>
        <path id="DejaVuSans-31" d="M 794 531 
L 1825 531 
L 1825 4091 
L 703 3866 
L 703 4441 
L 1819 4666 
L 2450 4666 
L 2450 531 
L 3481 531 
L 3481 0 
L 794 0 
L 794 531 
z
" transform="scale(0.015625)"/>
       </defs>
       <use xlink:href="#DejaVuSans-31"/>
       <use xlink:href="#DejaVuSans-2e" x="63.623047"/>
       <use xlink:href="#DejaVuSans-30" x="95.410156"/>
      </g>
     </g>
    </g>
    <g id="text_7">
     <!-- False Positive Rate -->
     <g transform="translate(322.533594 476.836563) scale(0.1 -0.1)">
      <defs>
       <path id="DejaVuSans-46" d="M 628 4666 
L 3309 4666 
L 3309 4134 
L 1259 4134 
L 1259 2759 
L 3109 2759 
L 3109 2228 
L 1259 2228 
L 1259 0 
L 628 0 
L 628 4666 
z
" transform="scale(0.015625)"/>
       <path id="DejaVuSans-61" d="M 2194 1759 
Q 1497 1759 1228 1600 
Q 959 1441 959 1056 
Q 959 750 1161 570 
Q 1363 391 1709 391 
Q 2188 391 2477 730 
Q 2766 1069 2766 1631 
L 2766 1759 
L 2194 1759 
z
M 3341 1997 
L 3341 0 
L 2766 0 
L 2766 531 
Q 2569 213 2275 61 
Q 1981 -91 1556 -91 
Q 1019 -91 701 211 
Q 384 513 384 1019 
Q 384 1609 779 1909 
Q 1175 2209 1959 2209 
L 2766 2209 
L 2766 2266 
Q 2766 2663 2505 2880 
Q 2244 3097 1772 3097 
Q 1472 3097 1187 3025 
Q 903 2953 641 2809 
L 641 3341 
Q 956 3463 1253 3523 
Q 1550 3584 1831 3584 
Q 2591 3584 2966 3190 
Q 3341 2797 3341 1997 
z
" transform="scale(0.015625)"/>
       <path id="DejaVuSans-6c" d="M 603 4863 
L 1178 4863 
L 1178 0 
L 603 0 
L 603 4863 
z
" transform="scale(0.015625)"/>
       <path id="DejaVuSans-73" d="M 2834 3397 
L 2834 2853 
Q 2591 2978 2328 3040 
Q 2066 3103 1784 3103 
Q 1356 3103 1142 2972 
Q 928 2841 928 2578 
Q 928 2378 1081 2264 
Q 1234 2150 1697 2047 
L 1894 2003 
Q 2506 1872 2764 1633 
Q 3022 1394 3022 966 
Q 3022 478 2636 193 
Q 2250 -91 1575 -91 
Q 1294 -91 989 -36 
Q 684 19 347 128 
L 347 722 
Q 666 556 975 473 
Q 1284 391 1588 391 
Q 1994 391 2212 530 
Q 2431 669 2431 922 
Q 2431 1156 2273 1281 
Q 2116 1406 1581 1522 
L 1381 1569 
Q 847 1681 609 1914 
Q 372 2147 372 2553 
Q 372 3047 722 3315 
Q 1072 3584 1716 3584 
Q 2034 3584 2315 3537 
Q 2597 3491 2834 3397 
z
" transform="scale(0.015625)"/>
       <path id="DejaVuSans-65" d="M 3597 1894 
L 3597 1613 
L 953 1613 
Q 991 1019 1311 708 
Q 1631 397 2203 397 
Q 2534 397 2845 478 
Q 3156 559 3463 722 
L 3463 178 
Q 3153 47 2828 -22 
Q 2503 -91 2169 -91 
Q 1331 -91 842 396 
Q 353 884 353 1716 
Q 353 2575 817 3079 
Q 1281 3584 2069 3584 
Q 2775 3584 3186 3129 
Q 3597 2675 3597 1894 
z
M 3022 2063 
Q 3016 2534 2758 2815 
Q 2500 3097 2075 3097 
Q 1594 3097 1305 2825 
Q 1016 2553 972 2059 
L 3022 2063 
z
" transform="scale(0.015625)"/>
       <path id="DejaVuSans-20" transform="scale(0.015625)"/>
       <path id="DejaVuSans-50" d="M 1259 4147 
L 1259 2394 
L 2053 2394 
Q 2494 2394 2734 2622 
Q 2975 2850 2975 3272 
Q 2975 3691 2734 3919 
Q 2494 4147 2053 4147 
L 1259 4147 
z
M 628 4666 
L 2053 4666 
Q 2838 4666 3239 4311 
Q 3641 3956 3641 3272 
Q 3641 2581 3239 2228 
Q 2838 1875 2053 1875 
L 1259 1875 
L 1259 0 
L 628 0 
L 628 4666 
z
" transform="scale(0.015625)"/>
       <path id="DejaVuSans-6f" d="M 1959 3097 
Q 1497 3097 1228 2736 
Q 959 2375 959 1747 
Q 959 1119 1226 758 
Q 1494 397 1959 397 
Q 2419 397 2687 759 
Q 2956 1122 2956 1747 
Q 2956 2369 2687 2733 
Q 2419 3097 1959 3097 
z
M 1959 3584 
Q 2709 3584 3137 3096 
Q 3566 2609 3566 1747 
Q 3566 888 3137 398 
Q 2709 -91 1959 -91 
Q 1206 -91 779 398 
Q 353 888 353 1747 
Q 353 2609 779 3096 
Q 1206 3584 1959 3584 
z
" transform="scale(0.015625)"/>
       <path id="DejaVuSans-69" d="M 603 3500 
L 1178 3500 
L 1178 0 
L 603 0 
L 603 3500 
z
M 603 4863 
L 1178 4863 
L 1178 4134 
L 603 4134 
L 603 4863 
z
" transform="scale(0.015625)"/>
       <path id="DejaVuSans-74" d="M 1172 4494 
L 1172 3500 
L 2356 3500 
L 2356 3053 
L 1172 3053 
L 1172 1153 
Q 1172 725 1289 603 
Q 1406 481 1766 481 
L 2356 481 
L 2356 0 
L 1766 0 
Q 1100 0 847 248 
Q 594 497 594 1153 
L 594 3053 
L 172 3053 
L 172 3500 
L 594 3500 
L 594 4494 
L 1172 4494 
z
" transform="scale(0.015625)"/>
       <path id="DejaVuSans-76" d="M 191 3500 
L 800 3500 
L 1894 563 
L 2988 3500 
L 3597 3500 
L 2284 0 
L 1503 0 
L 191 3500 
z
" transform="scale(0.015625)"/>
       <path id="DejaVuSans-52" d="M 2841 2188 
Q 3044 2119 3236 1894 
Q 3428 1669 3622 1275 
L 4263 0 
L 3584 0 
L 2988 1197 
Q 2756 1666 2539 1819 
Q 2322 1972 1947 1972 
L 1259 1972 
L 1259 0 
L 628 0 
L 628 4666 
L 2053 4666 
Q 2853 4666 3247 4331 
Q 3641 3997 3641 3322 
Q 3641 2881 3436 2590 
Q 3231 2300 2841 2188 
z
M 1259 4147 
L 1259 2491 
L 2053 2491 
Q 2509 2491 2742 2702 
Q 2975 2913 2975 3322 
Q 2975 3731 2742 3939 
Q 2509 4147 2053 4147 
L 1259 4147 
z
" transform="scale(0.015625)"/>
      </defs>
      <use xlink:href="#DejaVuSans-46"/>
      <use xlink:href="#DejaVuSans-61" x="48.394531"/>
      <use xlink:href="#DejaVuSans-6c" x="109.673828"/>
      <use xlink:href="#DejaVuSans-73" x="137.457031"/>
      <use xlink:href="#DejaVuSans-65" x="189.556641"/>
      <use xlink:href="#DejaVuSans-20" x="251.080078"/>
      <use xlink:href="#DejaVuSans-50" x="282.867188"/>
      <use xlink:href="#DejaVuSans-6f" x="339.544922"/>
      <use xlink:href="#DejaVuSans-73" x="400.726562"/>
      <use xlink:href="#DejaVuSans-69" x="452.826172"/>
      <use xlink:href="#DejaVuSans-74" x="480.609375"/>
      <use xlink:href="#DejaVuSans-69" x="519.818359"/>
      <use xlink:href="#DejaVuSans-76" x="547.601562"/>
      <use xlink:href="#DejaVuSans-65" x="606.78125"/>
      <use xlink:href="#DejaVuSans-20" x="668.304688"/>
      <use xlink:href="#DejaVuSans-52" x="700.091797"/>
      <use xlink:href="#DejaVuSans-61" x="767.324219"/>
      <use xlink:href="#DejaVuSans-74" x="828.603516"/>
      <use xlink:href="#DejaVuSans-65" x="867.8125"/>
     </g>
    </g>
   </g>
   <g id="matplotlib.axis_2">
    <g id="ytick_1">
     <g id="line2d_7">
      <defs>
       <path id="m7e1c8293d4" d="M 0 0 
L -3.5 0 
" style="stroke: #000000; stroke-width: 0.8"/>
      </defs>
      <g>
       <use xlink:href="#m7e1c8293d4" x="90" y="448.56" style="stroke: #000000; stroke-width: 0.8"/>
      </g>
     </g>
     <g id="text_8">
      <!-- 0.0 -->
      <g transform="translate(67.096875 452.359219) scale(0.1 -0.1)">
       <use xlink:href="#DejaVuSans-30"/>
       <use xlink:href="#DejaVuSans-2e" x="63.623047"/>
       <use xlink:href="#DejaVuSans-30" x="95.410156"/>
      </g>
     </g>
    </g>
    <g id="ytick_2">
     <g id="line2d_8">
      <g>
       <use xlink:href="#m7e1c8293d4" x="90" y="374.64" style="stroke: #000000; stroke-width: 0.8"/>
      </g>
     </g>
     <g id="text_9">
      <!-- 0.2 -->
      <g transform="translate(67.096875 378.439219) scale(0.1 -0.1)">
       <use xlink:href="#DejaVuSans-30"/>
       <use xlink:href="#DejaVuSans-2e" x="63.623047"/>
       <use xlink:href="#DejaVuSans-32" x="95.410156"/>
      </g>
     </g>
    </g>
    <g id="ytick_3">
     <g id="line2d_9">
      <g>
       <use xlink:href="#m7e1c8293d4" x="90" y="300.72" style="stroke: #000000; stroke-width: 0.8"/>
      </g>
     </g>
     <g id="text_10">
      <!-- 0.4 -->
      <g transform="translate(67.096875 304.519219) scale(0.1 -0.1)">
       <use xlink:href="#DejaVuSans-30"/>
       <use xlink:href="#DejaVuSans-2e" x="63.623047"/>
       <use xlink:href="#DejaVuSans-34" x="95.410156"/>
      </g>
     </g>
    </g>
    <g id="ytick_4">
     <g id="line2d_10">
      <g>
       <use xlink:href="#m7e1c8293d4" x="90" y="226.8" style="stroke: #000000; stroke-width: 0.8"/>
      </g>
     </g>
     <g id="text_11">
      <!-- 0.6 -->
      <g transform="translate(67.096875 230.599219) scale(0.1 -0.1)">
       <use xlink:href="#DejaVuSans-30"/>
       <use xlink:href="#DejaVuSans-2e" x="63.623047"/>
       <use xlink:href="#DejaVuSans-36" x="95.410156"/>
      </g>
     </g>
    </g>
    <g id="ytick_5">
     <g id="line2d_11">
      <g>
       <use xlink:href="#m7e1c8293d4" x="90" y="152.88" style="stroke: #000000; stroke-width: 0.8"/>
      </g>
     </g>
     <g id="text_12">
      <!-- 0.8 -->
      <g transform="translate(67.096875 156.679219) scale(0.1 -0.1)">
       <use xlink:href="#DejaVuSans-30"/>
       <use xlink:href="#DejaVuSans-2e" x="63.623047"/>
       <use xlink:href="#DejaVuSans-38" x="95.410156"/>
      </g>
     </g>
    </g>
    <g id="ytick_6">
     <g id="line2d_12">
      <g>
       <use xlink:href="#m7e1c8293d4" x="90" y="78.96" style="stroke: #000000; stroke-width: 0.8"/>
      </g>
     </g>
     <g id="text_13">
      <!-- 1.0 -->
      <g transform="translate(67.096875 82.759219) scale(0.1 -0.1)">
       <use xlink:href="#DejaVuSans-31"/>
       <use xlink:href="#DejaVuSans-2e" x="63.623047"/>
       <use xlink:href="#DejaVuSans-30" x="95.410156"/>
      </g>
     </g>
    </g>
    <g id="text_14">
     <!-- True Positive Rate -->
     <g transform="translate(61.017187 299.049688) rotate(-90) scale(0.1 -0.1)">
      <defs>
       <path id="DejaVuSans-54" d="M -19 4666 
L 3928 4666 
L 3928 4134 
L 2272 4134 
L 2272 0 
L 1638 0 
L 1638 4134 
L -19 4134 
L -19 4666 
z
" transform="scale(0.015625)"/>
       <path id="DejaVuSans-72" d="M 2631 2963 
Q 2534 3019 2420 3045 
Q 2306 3072 2169 3072 
Q 1681 3072 1420 2755 
Q 1159 2438 1159 1844 
L 1159 0 
L 581 0 
L 581 3500 
L 1159 3500 
L 1159 2956 
Q 1341 3275 1631 3429 
Q 1922 3584 2338 3584 
Q 2397 3584 2469 3576 
Q 2541 3569 2628 3553 
L 2631 2963 
z
" transform="scale(0.015625)"/>
       <path id="DejaVuSans-75" d="M 544 1381 
L 544 3500 
L 1119 3500 
L 1119 1403 
Q 1119 906 1312 657 
Q 1506 409 1894 409 
Q 2359 409 2629 706 
Q 2900 1003 2900 1516 
L 2900 3500 
L 3475 3500 
L 3475 0 
L 2900 0 
L 2900 538 
Q 2691 219 2414 64 
Q 2138 -91 1772 -91 
Q 1169 -91 856 284 
Q 544 659 544 1381 
z
M 1991 3584 
L 1991 3584 
z
" transform="scale(0.015625)"/>
      </defs>
      <use xlink:href="#DejaVuSans-54"/>
      <use xlink:href="#DejaVuSans-72" x="46.333984"/>
      <use xlink:href="#DejaVuSans-75" x="87.447266"/>
      <use xlink:href="#DejaVuSans-65" x="150.826172"/>
      <use xlink:href="#DejaVuSans-20" x="212.349609"/>
      <use xlink:href="#DejaVuSans-50" x="244.136719"/>
      <use xlink:href="#DejaVuSans-6f" x="300.814453"/>
      <use xlink:href="#DejaVuSans-73" x="361.996094"/>
      <use xlink:href="#DejaVuSans-69" x="414.095703"/>
      <use xlink:href="#DejaVuSans-74" x="441.878906"/>
      <use xlink:href="#DejaVuSans-69" x="481.087891"/>
      <use xlink:href="#DejaVuSans-76" x="508.871094"/>
      <use xlink:href="#DejaVuSans-65" x="568.050781"/>
      <use xlink:href="#DejaVuSans-20" x="629.574219"/>
      <use xlink:href="#DejaVuSans-52" x="661.361328"/>
      <use xlink:href="#DejaVuSans-61" x="728.59375"/>
      <use xlink:href="#DejaVuSans-74" x="789.873047"/>
      <use xlink:href="#DejaVuSans-65" x="829.082031"/>
     </g>
    </g>
   </g>
   <g id="line2d_13">
    <path d="M 90 448.56 
L 90.420497 200.419628 
L 90.420497 199.870037 
L 90.420497 199.045651 
L 90.420497 198.221264 
L 90.420497 197.671673 
L 90.420497 163.32223 
L 90.420497 163.047435 
L 90.420497 162.497844 
L 90.420497 146.559703 
L 90.420497 146.010112 
L 90.420497 145.735316 
L 90.840995 141.888178 
L 91.261492 131.720743 
L 91.261492 131.445948 
L 91.681989 131.171152 
L 91.681989 130.07197 
L 91.681989 129.797175 
L 91.681989 123.751673 
L 91.681989 119.354944 
L 91.681989 119.080149 
L 91.681989 114.958216 
L 91.681989 110.561487 
L 91.681989 108.088327 
L 92.102487 108.088327 
L 92.102487 106.164758 
L 92.102487 105.065576 
L 92.522984 105.065576 
L 92.522984 102.317621 
L 92.943482 100.668848 
L 92.943482 100.394052 
L 92.943482 99.569665 
L 92.943482 98.470483 
L 92.943482 97.646097 
L 93.363979 97.371301 
L 93.784476 96.82171 
L 93.784476 96.272119 
L 94.204974 95.172937 
L 94.625471 94.898141 
L 94.625471 93.798959 
L 94.625471 92.974572 
L 94.625471 91.325799 
L 94.625471 91.051004 
L 94.625471 90.501413 
L 95.045968 89.951822 
L 95.045968 89.677026 
L 95.045968 89.127435 
L 95.466466 89.127435 
L 95.886963 88.852639 
L 95.886963 88.577844 
L 96.727958 88.577844 
L 96.727958 87.203866 
L 97.148455 87.203866 
L 97.148455 86.929071 
L 97.148455 86.37948 
L 97.148455 85.280297 
L 97.98945 85.280297 
L 97.98945 85.005502 
L 98.409947 85.005502 
L 99.250942 84.730706 
L 99.250942 84.181115 
L 99.250942 83.631524 
L 99.671439 83.631524 
L 100.512434 83.356729 
L 100.932931 83.081933 
L 101.353429 83.081933 
L 101.773926 82.532342 
L 102.614921 82.257546 
L 102.614921 81.982751 
L 103.035418 81.982751 
L 103.035418 81.707955 
L 103.876413 81.707955 
L 104.717408 81.707955 
L 106.399397 81.707955 
L 107.660889 81.707955 
L 108.081387 81.43316 
L 108.501884 81.43316 
L 109.342879 81.158364 
L 111.445365 81.158364 
L 111.865863 81.158364 
L 113.547852 81.158364 
L 116.070836 81.158364 
L 116.911831 81.158364 
L 117.752826 80.608773 
L 118.173323 80.608773 
L 119.434815 80.608773 
L 121.116805 80.608773 
L 124.480784 80.333978 
L 125.742276 80.333978 
L 126.583271 80.333978 
L 128.685757 80.333978 
L 128.685757 80.059182 
L 129.106255 80.059182 
L 130.367747 80.059182 
L 130.788244 80.059182 
L 131.629239 80.059182 
L 132.049736 80.059182 
L 133.731726 80.059182 
L 134.993218 79.784387 
L 135.413715 79.784387 
L 137.936699 79.784387 
L 140.880181 79.784387 
L 141.721176 79.784387 
L 144.664657 79.784387 
L 145.085154 79.784387 
L 148.869631 79.509591 
L 149.290128 79.509591 
L 152.654107 79.509591 
L 153.074604 79.509591 
L 158.120573 79.234796 
L 166.110023 79.234796 
L 167.371515 79.234796 
L 168.212509 79.234796 
L 179.986436 79.234796 
L 180.406933 79.234796 
L 206.477769 79.234796 
L 238.435569 79.234796 
L 238.856066 79.234796 
L 240.117558 78.96 
L 240.538056 78.96 
L 331.365486 78.96 
L 331.785983 78.96 
L 648 78.96 
" clip-path="url(#p41eb98398b)" style="fill: none; stroke: #1f77b4; stroke-width: 2; stroke-linecap: square"/>
   </g>
   <g id="line2d_14">
    <path d="M 90 448.56 
L 91.261492 448.56 
L 91.261492 446.911227 
L 91.681989 446.911227 
L 91.681989 445.262454 
L 92.102487 445.262454 
L 92.102487 444.163271 
L 92.522984 444.163271 
L 92.522984 443.064089 
L 92.943482 443.064089 
L 92.943482 435.64461 
L 93.363979 435.64461 
L 93.363979 432.072268 
L 93.784476 432.072268 
L 93.784476 431.797472 
L 94.204974 431.797472 
L 94.204974 430.973086 
L 94.625471 430.973086 
L 94.625471 430.69829 
L 95.045968 430.69829 
L 95.045968 424.103197 
L 95.466466 424.103197 
L 95.466466 420.805651 
L 95.886963 420.805651 
L 95.886963 419.981264 
L 96.727958 419.981264 
L 96.727958 418.607286 
L 97.148455 418.607286 
L 97.148455 416.408922 
L 97.98945 416.408922 
L 97.98945 415.30974 
L 98.409947 415.30974 
L 98.409947 413.386171 
L 99.250942 413.386171 
L 99.250942 413.111375 
L 99.671439 413.111375 
L 99.671439 412.561784 
L 100.512434 412.561784 
L 100.512434 410.638216 
L 101.353429 410.638216 
L 101.353429 408.439851 
L 101.773926 408.439851 
L 101.773926 407.89026 
L 102.194424 407.89026 
L 102.194424 407.065874 
L 103.035418 407.065874 
L 103.035418 402.119554 
L 103.455916 402.119554 
L 103.455916 401.844758 
L 105.558402 401.844758 
L 105.558402 400.195985 
L 105.9789 400.195985 
L 105.9789 399.646394 
L 106.399397 399.646394 
L 106.399397 397.722825 
L 107.240392 397.722825 
L 107.240392 397.44803 
L 109.763376 397.44803 
L 109.763376 396.074052 
L 110.183873 396.074052 
L 110.183873 394.97487 
L 110.604371 394.97487 
L 110.604371 394.425279 
L 111.024868 394.425279 
L 111.024868 394.150483 
L 111.445365 394.150483 
L 111.445365 393.600892 
L 112.706858 393.600892 
L 112.706858 393.326097 
L 113.127355 393.326097 
L 113.127355 390.303346 
L 113.547852 390.303346 
L 113.547852 389.204164 
L 113.96835 389.204164 
L 113.96835 387.830186 
L 114.388847 387.830186 
L 114.388847 387.280595 
L 115.229842 387.280595 
L 115.229842 385.631822 
L 115.650339 385.631822 
L 115.650339 385.357026 
L 116.491334 385.357026 
L 116.491334 382.609071 
L 116.911831 382.609071 
L 116.911831 380.685502 
L 117.752826 380.685502 
L 117.752826 380.410706 
L 118.173323 380.410706 
L 118.173323 380.135911 
L 118.593821 380.135911 
L 118.593821 379.58632 
L 119.014318 379.58632 
L 119.014318 378.761933 
L 119.434815 378.761933 
L 119.434815 377.662751 
L 119.855313 377.662751 
L 119.855313 377.387955 
L 120.27581 377.387955 
L 120.27581 377.11316 
L 121.116805 377.11316 
L 121.116805 376.563569 
L 121.537302 376.563569 
L 121.537302 375.189591 
L 122.378297 375.189591 
L 122.378297 374.64 
L 122.798794 374.64 
L 122.798794 372.991227 
L 124.060286 372.991227 
L 124.060286 372.716431 
L 124.901281 372.716431 
L 124.901281 372.16684 
L 125.321778 372.16684 
L 125.321778 371.342454 
L 126.162773 371.342454 
L 126.162773 369.69368 
L 126.583271 369.69368 
L 126.583271 366.396134 
L 127.003768 366.396134 
L 127.003768 366.121338 
L 127.844763 366.121338 
L 127.844763 363.648178 
L 128.26526 363.648178 
L 128.26526 363.373383 
L 128.685757 363.373383 
L 128.685757 361.999405 
L 129.106255 361.999405 
L 129.106255 360.625428 
L 129.526752 360.625428 
L 129.526752 359.526245 
L 129.947249 359.526245 
L 129.947249 358.701859 
L 130.367747 358.701859 
L 130.367747 357.602677 
L 131.208742 357.602677 
L 131.208742 357.327881 
L 132.049736 357.327881 
L 132.049736 356.77829 
L 132.470234 356.77829 
L 132.470234 356.503494 
L 132.890731 356.503494 
L 132.890731 355.953903 
L 133.731726 355.953903 
L 133.731726 354.579926 
L 134.57272 354.579926 
L 134.57272 354.30513 
L 135.413715 354.30513 
L 135.413715 353.480743 
L 136.675207 353.480743 
L 136.675207 353.205948 
L 137.936699 353.205948 
L 137.936699 351.007584 
L 138.357197 351.007584 
L 138.357197 349.35881 
L 138.777694 349.35881 
L 138.777694 344.962082 
L 139.198191 344.962082 
L 139.198191 344.687286 
L 139.618689 344.687286 
L 139.618689 344.137695 
L 140.039186 344.137695 
L 140.039186 342.488922 
L 140.880181 342.488922 
L 140.880181 341.38974 
L 141.721176 341.38974 
L 141.721176 340.840149 
L 142.141673 340.840149 
L 142.141673 340.565353 
L 142.56217 340.565353 
L 142.56217 339.740967 
L 143.403165 339.740967 
L 143.403165 339.466171 
L 143.823662 339.466171 
L 143.823662 337.817398 
L 144.24416 337.817398 
L 144.24416 337.542602 
L 145.505652 337.542602 
L 145.505652 336.718216 
L 145.926149 336.718216 
L 145.926149 336.168625 
L 146.767144 336.168625 
L 146.767144 335.619033 
L 147.187641 335.619033 
L 147.187641 335.344238 
L 147.608139 335.344238 
L 147.608139 334.519851 
L 148.449133 334.519851 
L 148.449133 333.420669 
L 148.869631 333.420669 
L 148.869631 333.145874 
L 149.710625 333.145874 
L 149.710625 332.596283 
L 151.392615 332.596283 
L 151.392615 331.771896 
L 152.23361 331.771896 
L 152.23361 331.222305 
L 153.074604 331.222305 
L 153.074604 330.397918 
L 153.495102 330.397918 
L 153.495102 330.123123 
L 153.915599 330.123123 
L 153.915599 329.573532 
L 154.336096 329.573532 
L 154.336096 327.375167 
L 155.177091 327.375167 
L 155.177091 326.275985 
L 156.018086 326.275985 
L 156.018086 325.176803 
L 156.438583 325.176803 
L 156.438583 324.352416 
L 157.279578 324.352416 
L 157.279578 323.52803 
L 158.54107 323.52803 
L 158.54107 322.978439 
L 159.382065 322.978439 
L 159.382065 321.05487 
L 159.802562 321.05487 
L 159.802562 320.780074 
L 160.22306 320.780074 
L 160.22306 320.505279 
L 161.484552 320.505279 
L 161.484552 320.230483 
L 161.905049 320.230483 
L 161.905049 319.406097 
L 164.007536 319.406097 
L 164.007536 318.856506 
L 164.428033 318.856506 
L 164.428033 318.58171 
L 164.848531 318.58171 
L 164.848531 318.306914 
L 166.110023 318.306914 
L 166.110023 317.757323 
L 167.792012 317.757323 
L 167.792012 317.482528 
L 168.212509 317.482528 
L 168.212509 317.207732 
L 168.633007 317.207732 
L 168.633007 316.932937 
L 170.735494 316.932937 
L 170.735494 316.658141 
L 171.576488 316.658141 
L 171.576488 316.383346 
L 172.83798 316.383346 
L 172.83798 316.10855 
L 173.258478 316.10855 
L 173.258478 314.734572 
L 173.678975 314.734572 
L 173.678975 311.711822 
L 174.099472 311.711822 
L 174.099472 311.437026 
L 174.51997 311.437026 
L 174.51997 310.887435 
L 174.940467 310.887435 
L 174.940467 310.337844 
L 175.360965 310.337844 
L 175.360965 310.063048 
L 176.201959 310.063048 
L 176.201959 309.788253 
L 176.622457 309.788253 
L 176.622457 308.963866 
L 177.042954 308.963866 
L 177.042954 308.689071 
L 177.463451 308.689071 
L 177.463451 308.414275 
L 177.883949 308.414275 
L 177.883949 307.589888 
L 180.82743 307.589888 
L 180.82743 307.315093 
L 181.247928 307.315093 
L 181.247928 305.116729 
L 181.668425 305.116729 
L 181.668425 304.017546 
L 182.929917 304.017546 
L 182.929917 303.467955 
L 183.770912 303.467955 
L 183.770912 302.918364 
L 184.191409 302.918364 
L 184.191409 302.368773 
L 184.611907 302.368773 
L 184.611907 301.269591 
L 186.293896 301.269591 
L 186.293896 300.994796 
L 186.714393 300.994796 
L 186.714393 300.72 
L 188.396383 300.72 
L 188.396383 300.445204 
L 188.81688 300.445204 
L 188.81688 300.170409 
L 190.078372 300.170409 
L 190.078372 299.620818 
L 190.49887 299.620818 
L 190.49887 299.346022 
L 191.760362 299.346022 
L 191.760362 299.071227 
L 192.601356 299.071227 
L 192.601356 298.521636 
L 193.021854 298.521636 
L 193.021854 296.323271 
L 193.442351 296.323271 
L 193.442351 296.048476 
L 193.862849 296.048476 
L 193.862849 294.949294 
L 194.283346 294.949294 
L 194.283346 294.674498 
L 194.703843 294.674498 
L 194.703843 294.399703 
L 195.124341 294.399703 
L 195.124341 293.850112 
L 195.965335 293.850112 
L 195.965335 293.575316 
L 196.385833 293.575316 
L 196.385833 292.201338 
L 196.80633 292.201338 
L 196.80633 291.926543 
L 197.647325 291.926543 
L 197.647325 291.102156 
L 198.067822 291.102156 
L 198.067822 290.827361 
L 198.48832 290.827361 
L 198.48832 290.552565 
L 199.329314 290.552565 
L 199.329314 290.27777 
L 199.749812 290.27777 
L 199.749812 288.628996 
L 200.170309 288.628996 
L 200.170309 287.529814 
L 200.590806 287.529814 
L 200.590806 287.255019 
L 201.431801 287.255019 
L 201.431801 285.33145 
L 202.272796 285.33145 
L 202.272796 284.781859 
L 202.693293 284.781859 
L 202.693293 284.507063 
L 203.113791 284.507063 
L 203.113791 283.133086 
L 203.954785 283.133086 
L 203.954785 282.308699 
L 204.375283 282.308699 
L 204.375283 280.38513 
L 205.216277 280.38513 
L 205.216277 278.736357 
L 206.057272 278.736357 
L 206.057272 278.461561 
L 207.318764 278.461561 
L 207.318764 276.812788 
L 209.000754 276.812788 
L 209.000754 275.988401 
L 209.841748 275.988401 
L 209.841748 273.790037 
L 210.262246 273.790037 
L 210.262246 273.240446 
L 211.944235 273.240446 
L 211.944235 272.690855 
L 212.78523 272.690855 
L 212.78523 272.416059 
L 213.626225 272.416059 
L 214.046722 269.668104 
L 214.046722 268.019331 
L 215.308214 268.019331 
L 215.728711 267.46974 
L 216.149209 267.46974 
L 216.149209 266.920149 
L 216.569706 266.920149 
L 216.569706 266.645353 
L 216.990203 266.645353 
L 216.990203 266.370558 
L 217.831198 266.370558 
L 217.831198 266.095762 
L 219.09269 266.095762 
L 219.09269 264.99658 
L 220.354182 264.99658 
L 220.354182 264.721784 
L 220.77468 264.721784 
L 220.77468 264.446989 
L 221.615674 264.446989 
L 221.615674 263.622602 
L 228.343632 263.622602 
L 228.343632 263.347807 
L 229.184627 263.347807 
L 229.184627 263.073011 
L 229.605124 263.073011 
L 229.605124 262.798216 
L 230.446119 262.798216 
L 230.446119 262.52342 
L 232.969103 262.52342 
L 232.969103 261.973829 
L 233.389601 261.973829 
L 233.389601 261.699033 
L 233.810098 261.699033 
L 233.810098 261.424238 
L 234.230595 261.424238 
L 234.230595 260.599851 
L 235.07159 260.599851 
L 235.07159 260.325056 
L 235.492087 260.325056 
L 235.492087 259.775465 
L 236.333082 259.775465 
L 236.333082 259.225874 
L 237.174077 259.225874 
L 237.174077 258.676283 
L 238.856066 258.676283 
L 238.856066 257.851896 
L 239.276564 257.851896 
L 239.276564 257.5771 
L 240.117558 257.5771 
L 240.117558 257.302305 
L 241.799548 257.302305 
L 241.799548 256.752714 
L 242.220045 256.752714 
L 242.220045 255.653532 
L 242.640543 255.653532 
L 242.640543 255.378736 
L 243.481537 255.378736 
L 243.481537 255.103941 
L 244.322532 255.103941 
L 244.322532 254.279554 
L 245.163527 254.279554 
L 245.163527 253.729963 
L 245.584024 253.729963 
L 245.584024 253.455167 
L 246.004521 253.455167 
L 246.004521 250.157621 
L 246.425019 250.157621 
L 246.425019 249.882825 
L 248.107008 249.882825 
L 248.107008 249.333234 
L 249.788998 249.333234 
L 249.788998 248.508848 
L 250.209495 248.508848 
L 250.209495 248.234052 
L 250.629992 248.234052 
L 250.629992 247.684461 
L 251.05049 247.684461 
L 251.05049 247.13487 
L 252.732479 247.13487 
L 252.732479 246.310483 
L 253.993971 246.310483 
L 253.993971 246.035688 
L 254.414469 246.035688 
L 254.414469 245.486097 
L 255.255463 245.486097 
L 255.255463 245.211301 
L 256.096458 245.211301 
L 256.096458 244.66171 
L 256.516956 244.66171 
L 256.516956 244.386914 
L 257.35795 244.386914 
L 257.35795 243.287732 
L 257.778448 243.287732 
L 257.778448 242.18855 
L 258.198945 242.18855 
L 258.198945 241.913755 
L 259.03994 241.913755 
L 259.03994 241.364164 
L 259.460437 241.364164 
L 259.460437 240.814572 
L 259.880934 240.814572 
L 259.880934 240.539777 
L 260.301432 240.539777 
L 260.301432 238.341413 
L 260.721929 238.341413 
L 260.721929 237.24223 
L 261.562924 237.24223 
L 261.562924 235.318662 
L 261.983421 235.318662 
L 261.983421 232.845502 
L 262.403919 232.845502 
L 262.403919 230.921933 
L 262.824416 230.921933 
L 262.824416 229.547955 
L 263.665411 229.547955 
L 263.665411 227.624387 
L 264.085908 227.624387 
L 264.085908 225.975613 
L 264.506405 225.975613 
L 264.506405 225.700818 
L 265.767898 225.700818 
L 265.767898 225.151227 
L 266.188395 225.151227 
L 266.188395 223.777249 
L 266.608892 223.777249 
L 266.608892 222.403271 
L 267.02939 222.403271 
L 267.02939 222.128476 
L 267.449887 222.128476 
L 267.449887 219.655316 
L 268.711379 219.655316 
L 268.711379 219.105725 
L 269.131876 219.105725 
L 269.131876 216.907361 
L 270.393369 216.907361 
L 270.393369 216.632565 
L 270.813866 216.632565 
L 270.813866 216.35777 
L 272.495855 216.35777 
L 272.495855 214.983792 
L 272.916353 214.983792 
L 272.916353 214.159405 
L 273.33685 214.159405 
L 273.33685 213.88461 
L 273.757347 213.88461 
L 273.757347 213.060223 
L 274.177845 213.060223 
L 274.177845 212.510632 
L 275.439337 212.510632 
L 275.439337 211.41145 
L 276.700829 211.41145 
L 276.700829 211.136654 
L 277.121326 211.136654 
L 277.121326 210.861859 
L 278.382818 210.861859 
L 278.382818 210.312268 
L 279.223813 210.312268 
L 279.223813 209.762677 
L 279.64431 209.762677 
L 279.64431 208.93829 
L 283.428787 208.93829 
L 283.428787 208.113903 
L 285.531274 208.113903 
L 285.531274 207.839108 
L 285.951771 207.839108 
L 285.951771 207.289517 
L 288.474755 207.289517 
L 288.474755 207.014721 
L 289.736247 207.014721 
L 289.736247 206.739926 
L 291.418237 206.739926 
L 291.418237 206.46513 
L 291.838734 206.46513 
L 291.838734 206.190335 
L 292.259231 206.190335 
L 292.259231 205.640743 
L 292.679729 205.640743 
L 292.679729 205.365948 
L 293.100226 205.365948 
L 293.100226 204.816357 
L 293.941221 204.816357 
L 293.941221 204.266766 
L 294.782216 204.266766 
L 294.782216 203.717175 
L 296.043708 203.717175 
L 296.043708 203.442379 
L 296.464205 203.442379 
L 296.464205 203.167584 
L 296.884702 203.167584 
L 296.884702 202.617993 
L 297.3052 202.617993 
L 297.3052 202.343197 
L 297.725697 202.343197 
L 297.725697 202.068401 
L 298.566692 202.068401 
L 298.566692 201.793606 
L 299.828184 201.793606 
L 299.828184 201.244015 
L 301.089676 201.244015 
L 301.089676 200.969219 
L 301.510173 200.969219 
L 301.510173 200.144833 
L 303.192163 200.144833 
L 303.192163 198.496059 
L 303.61266 198.496059 
L 303.61266 198.221264 
L 304.033157 198.221264 
L 304.033157 197.671673 
L 304.453655 197.671673 
L 304.453655 196.847286 
L 304.874152 196.847286 
L 304.874152 196.297695 
L 305.29465 196.297695 
L 305.29465 196.0229 
L 307.397136 196.0229 
L 307.397136 195.748104 
L 307.817634 195.748104 
L 307.817634 195.473309 
L 308.238131 195.473309 
L 308.238131 195.198513 
L 308.658628 195.198513 
L 308.658628 193.824535 
L 309.079126 193.824535 
L 309.079126 193.54974 
L 309.499623 193.54974 
L 309.499623 193.274944 
L 310.340618 193.274944 
L 329.262999 184.756283 
L 329.262999 183.931896 
L 329.683497 183.931896 
L 329.683497 183.382305 
L 330.524491 183.382305 
L 330.524491 182.832714 
L 330.944989 182.832714 
L 330.944989 182.557918 
L 331.365486 182.557918 
L 331.365486 182.283123 
L 332.626978 182.283123 
L 332.626978 182.008327 
L 333.047476 182.008327 
L 333.047476 181.458736 
L 335.57046 181.458736 
L 335.57046 180.909145 
L 335.990957 180.909145 
L 335.990957 180.359554 
L 336.831952 180.359554 
L 336.831952 180.084758 
L 340.616428 180.084758 
L 340.616428 179.809963 
L 342.298417 179.809963 
L 342.298417 179.535167 
L 346.082894 179.535167 
L 346.082894 179.260372 
L 346.503391 179.260372 
L 346.503391 178.710781 
L 349.446873 178.710781 
L 349.446873 178.435985 
L 349.86737 178.435985 
L 349.86737 178.16119 
L 351.969857 178.16119 
L 351.969857 177.886394 
L 352.810852 177.886394 
L 352.810852 177.611599 
L 353.231349 177.611599 
L 353.231349 177.336803 
L 354.072344 177.336803 
L 354.072344 177.062007 
L 354.913338 177.062007 
L 354.913338 176.787212 
L 355.333836 176.787212 
L 355.333836 176.237621 
L 355.754333 176.237621 
L 355.754333 175.413234 
L 356.595328 175.413234 
L 356.595328 175.138439 
L 357.015825 175.138439 
L 357.015825 174.863643 
L 357.436323 174.863643 
L 357.436323 174.314052 
L 357.85682 174.314052 
L 357.85682 173.764461 
L 359.118312 173.764461 
L 359.118312 173.21487 
L 359.538809 173.21487 
L 359.538809 172.390483 
L 359.959307 172.390483 
L 359.959307 171.566097 
L 360.379804 171.566097 
L 360.379804 171.291301 
L 362.482291 171.291301 
L 362.482291 170.466914 
L 362.902788 170.466914 
L 362.902788 170.192119 
L 363.743783 170.192119 
L 363.743783 169.917323 
L 364.16428 169.917323 
L 364.16428 169.642528 
L 365.425772 169.642528 
L 365.425772 169.367732 
L 366.266767 169.367732 
L 366.266767 169.092937 
L 372.15373 169.092937 
L 372.15373 168.818141 
L 374.676714 168.818141 
L 374.676714 168.26855 
L 375.517709 168.26855 
L 375.517709 167.993755 
L 378.040693 167.993755 
L 378.040693 167.444164 
L 382.245667 167.444164 
L 382.245667 167.169368 
L 383.507159 167.169368 
L 383.507159 166.344981 
L 383.927656 166.344981 
L 383.927656 165.79539 
L 387.712133 165.79539 
L 387.712133 165.245799 
L 388.553127 165.245799 
L 388.553127 164.696208 
L 389.394122 164.696208 
L 389.394122 164.421413 
L 389.814619 164.421413 
L 389.814619 164.146617 
L 394.019593 164.146617 
L 394.019593 163.871822 
L 394.44009 163.871822 
L 394.44009 163.597026 
L 396.963075 163.597026 
L 396.963075 163.32223 
L 398.224567 163.32223 
L 398.224567 163.047435 
L 398.645064 163.047435 
L 398.645064 162.772639 
L 399.486059 162.772639 
L 399.486059 162.223048 
L 400.747551 162.223048 
L 400.747551 161.948253 
L 401.588546 161.948253 
L 401.588546 161.673457 
L 403.270535 161.673457 
L 403.270535 161.123866 
L 404.11153 161.123866 
L 404.11153 160.574275 
L 404.952524 160.574275 
L 404.952524 160.29948 
L 407.055011 160.29948 
L 407.055011 160.024684 
L 407.896006 160.024684 
L 407.896006 158.925502 
L 409.577995 158.925502 
L 409.577995 158.375911 
L 410.41899 158.375911 
L 410.41899 157.001933 
L 410.839488 157.001933 
L 410.839488 155.627955 
L 411.259985 155.627955 
L 411.259985 155.35316 
L 411.680482 155.35316 
L 411.680482 154.803569 
L 412.521477 154.803569 
L 412.521477 153.979182 
L 412.941974 153.979182 
L 412.941974 153.154796 
L 413.362472 153.154796 
L 413.362472 152.88 
L 414.203466 152.88 
L 414.203466 152.055613 
L 414.623964 152.055613 
L 414.623964 150.956431 
L 415.044461 150.956431 
L 415.044461 150.681636 
L 415.464959 150.681636 
L 415.464959 149.307658 
L 415.885456 149.307658 
L 415.885456 147.93368 
L 416.726451 147.93368 
L 416.726451 147.658885 
L 417.567445 147.658885 
L 417.567445 147.384089 
L 417.987943 147.384089 
L 417.987943 147.109294 
L 418.40844 147.109294 
L 418.40844 146.010112 
L 418.828937 146.010112 
L 418.828937 145.46052 
L 419.669932 145.46052 
L 419.669932 143.536952 
L 420.09043 143.536952 
L 420.09043 143.262156 
L 420.510927 143.262156 
L 420.510927 142.43777 
L 420.931424 142.43777 
L 420.931424 141.613383 
L 421.772419 141.613383 
L 421.772419 141.338587 
L 422.613414 141.338587 
L 422.613414 141.063792 
L 423.454408 141.063792 
L 423.454408 140.788996 
L 423.874906 140.788996 
L 423.874906 139.689814 
L 424.295403 139.689814 
L 424.295403 139.140223 
L 424.715901 139.140223 
L 424.715901 138.315836 
L 425.977393 138.315836 
L 425.977393 137.766245 
L 427.238885 137.766245 
L 427.238885 135.293086 
L 427.659382 135.293086 
L 427.659382 135.01829 
L 428.079879 135.01829 
L 428.079879 133.369517 
L 428.500377 133.369517 
L 428.500377 133.094721 
L 429.341372 133.094721 
L 429.341372 132.270335 
L 429.761869 132.270335 
L 429.761869 131.720743 
L 430.602864 131.720743 
L 430.602864 131.171152 
L 431.023361 131.171152 
L 431.023361 130.896357 
L 433.125848 130.896357 
L 433.125848 130.07197 
L 433.546345 130.07197 
L 433.546345 128.423197 
L 434.38734 128.423197 
L 434.38734 128.148401 
L 434.807837 128.148401 
L 434.807837 127.873606 
L 435.228335 127.873606 
L 435.228335 127.59881 
L 436.489827 127.59881 
L 436.489827 127.324015 
L 437.751319 127.324015 
L 437.751319 126.774424 
L 438.592313 126.774424 
L 438.592313 126.499628 
L 440.274303 126.499628 
L 440.274303 126.224833 
L 441.115298 126.224833 
L 441.115298 125.675242 
L 441.956292 125.675242 
L 441.956292 124.301264 
L 447.002261 124.301264 
L 447.002261 123.476877 
L 447.422758 123.476877 
L 447.422758 123.202082 
L 447.843255 123.202082 
L 447.843255 122.652491 
L 448.68425 122.652491 
L 448.68425 122.1029 
L 449.104748 122.1029 
L 449.104748 121.553309 
L 450.786737 121.553309 
L 450.786737 120.728922 
L 451.627732 120.728922 
L 451.627732 119.62974 
L 452.048229 119.62974 
L 452.048229 117.980967 
L 452.468726 117.980967 
L 452.468726 116.606989 
L 452.889224 116.606989 
L 452.889224 116.057398 
L 453.730219 116.057398 
L 453.730219 115.507807 
L 456.253203 115.507807 
L 456.253203 115.233011 
L 457.094197 115.233011 
L 457.094197 114.958216 
L 457.514695 114.958216 
L 457.514695 114.408625 
L 457.935192 114.408625 
L 457.935192 114.133829 
L 458.35569 114.133829 
L 458.35569 113.584238 
L 458.776187 113.584238 
L 458.776187 113.309442 
L 460.458176 113.309442 
L 460.458176 112.759851 
L 461.299171 112.759851 
L 461.299171 112.21026 
L 463.822155 112.21026 
L 463.822155 111.935465 
L 464.242653 111.935465 
L 464.242653 111.660669 
L 465.504145 111.660669 
L 465.504145 111.385874 
L 465.924642 111.385874 
L 465.924642 111.111078 
L 468.027129 111.111078 
L 468.027129 110.836283 
L 469.288621 110.836283 
L 469.288621 110.286691 
L 470.129616 110.286691 
L 470.129616 110.011896 
L 470.97061 110.011896 
L 470.97061 109.7371 
L 472.6526 109.7371 
L 472.6526 109.187509 
L 476.437076 109.187509 
L 476.437076 108.637918 
L 478.119066 108.637918 
L 478.119066 108.363123 
L 479.380558 108.363123 
L 479.380558 108.088327 
L 479.801055 108.088327 
L 479.801055 107.813532 
L 480.221552 107.813532 
L 480.221552 105.889963 
L 481.483044 105.889963 
L 481.483044 105.340372 
L 481.903542 105.340372 
L 481.903542 104.790781 
L 484.006029 104.790781 
L 484.006029 104.515985 
L 484.847023 104.515985 
L 484.847023 104.24119 
L 485.267521 104.24119 
L 485.267521 103.966394 
L 487.370008 103.966394 
L 487.370008 103.691599 
L 489.472494 103.691599 
L 489.472494 103.416803 
L 490.733986 103.416803 
L 490.733986 103.142007 
L 491.574981 103.142007 
L 491.574981 102.867212 
L 493.677468 102.867212 
L 493.677468 102.592416 
L 494.93896 102.592416 
L 494.93896 102.042825 
L 495.779955 102.042825 
L 495.779955 101.76803 
L 496.62095 101.76803 
L 496.62095 101.493234 
L 497.882442 101.493234 
L 497.882442 100.668848 
L 499.143934 100.668848 
L 499.143934 99.844461 
L 499.564431 99.844461 
L 499.564431 99.569665 
L 499.984928 99.569665 
L 499.984928 98.745279 
L 500.405426 98.745279 
L 500.405426 98.470483 
L 500.825923 98.470483 
L 500.825923 97.920892 
L 502.087415 97.920892 
L 502.087415 97.371301 
L 502.92841 97.371301 
L 502.92841 97.096506 
L 503.348907 97.096506 
L 503.348907 95.997323 
L 504.189902 95.997323 
L 504.189902 95.722528 
L 505.030897 95.722528 
L 505.030897 95.447732 
L 505.451394 95.447732 
L 505.451394 95.172937 
L 506.292389 95.172937 
L 506.292389 94.898141 
L 506.712886 94.898141 
L 506.712886 93.798959 
L 507.133384 93.798959 
L 507.133384 93.249368 
L 507.553881 93.249368 
L 507.553881 92.424981 
L 507.974378 92.424981 
L 507.974378 92.150186 
L 508.394876 92.150186 
L 508.394876 91.87539 
L 511.758855 91.87539 
L 511.758855 91.600595 
L 512.179352 91.600595 
L 512.179352 91.051004 
L 512.599849 91.051004 
L 512.599849 90.776208 
L 513.020347 90.776208 
L 513.020347 90.501413 
L 514.281839 90.501413 
L 514.281839 89.40223 
L 514.702336 89.40223 
L 514.702336 89.127435 
L 515.963828 89.127435 
L 515.963828 88.852639 
L 516.384326 88.852639 
L 516.384326 88.028253 
L 517.22532 88.028253 
L 517.22532 87.753457 
L 520.589299 87.753457 
L 520.589299 86.654275 
L 521.430294 86.654275 
L 521.430294 86.104684 
L 521.850791 86.104684 
L 521.850791 85.280297 
L 530.260739 85.280297 
L 530.260739 85.005502 
L 531.522231 85.005502 
L 531.522231 84.455911 
L 533.20422 84.455911 
L 533.20422 84.181115 
L 537.409194 84.181115 
L 537.409194 83.90632 
L 538.670686 83.90632 
L 538.670686 83.631524 
L 544.557649 83.631524 
L 544.557649 83.356729 
L 558.854559 83.356729 
L 558.854559 83.081933 
L 566.003014 83.081933 
L 566.003014 82.807138 
L 571.048983 82.807138 
L 571.048983 82.532342 
L 581.561417 82.532342 
L 581.561417 82.257546 
L 587.027882 82.257546 
L 587.027882 81.982751 
L 587.44838 81.982751 
L 587.44838 81.707955 
L 589.550867 81.707955 
L 589.550867 81.43316 
L 589.971364 81.43316 
L 589.971364 80.883569 
L 591.653353 80.883569 
L 591.653353 80.608773 
L 592.494348 80.608773 
L 592.494348 80.333978 
L 598.381311 80.333978 
L 598.381311 80.059182 
L 599.642803 80.059182 
L 599.642803 79.784387 
L 601.74529 79.784387 
L 601.74529 79.509591 
L 614.360211 79.509591 
L 614.360211 79.234796 
L 616.462698 79.234796 
L 616.462698 78.96 
L 648 78.96 
L 648 78.96 
" clip-path="url(#p41eb98398b)" style="fill: none; stroke: #ff7f0e; stroke-width: 2; stroke-linecap: square"/>
   </g>
   <g id="line2d_15">
    <path d="M 90 448.56 
L 90 397.173234 
L 90.420497 397.173234 
L 90.420497 366.945725 
L 90.840995 366.945725 
L 90.840995 340.015762 
L 91.261492 340.015762 
L 91.261492 280.38513 
L 91.681989 280.38513 
L 91.681989 276.537993 
L 92.102487 276.537993 
L 92.102487 276.263197 
L 92.522984 276.263197 
L 92.522984 273.240446 
L 92.943482 273.240446 
L 92.943482 268.843717 
L 93.784476 268.843717 
L 93.784476 266.645353 
L 94.204974 266.645353 
L 94.204974 258.951078 
L 94.625471 258.951078 
L 94.625471 257.027509 
L 95.045968 257.027509 
L 95.045968 251.256803 
L 95.466466 251.256803 
L 95.466466 243.287732 
L 95.886963 243.287732 
L 95.886963 240.814572 
L 96.30746 240.814572 
L 96.30746 238.066617 
L 96.727958 238.066617 
L 96.727958 237.24223 
L 97.148455 237.24223 
L 97.148455 235.043866 
L 97.568953 235.043866 
L 97.568953 232.845502 
L 97.98945 232.845502 
L 97.98945 232.570706 
L 98.409947 232.570706 
L 98.409947 231.74632 
L 98.830445 231.74632 
L 98.830445 231.196729 
L 99.250942 231.196729 
L 99.250942 230.921933 
L 100.512434 230.921933 
L 100.512434 230.372342 
L 101.353429 230.372342 
L 101.353429 228.723569 
L 101.773926 228.723569 
L 101.773926 226.250409 
L 102.194424 226.250409 
L 102.194424 223.502454 
L 103.455916 223.502454 
L 103.455916 222.678067 
L 103.876413 222.678067 
L 103.876413 220.754498 
L 104.29691 220.754498 
L 104.29691 220.479703 
L 105.137905 220.479703 
L 105.137905 219.655316 
L 105.558402 219.655316 
L 105.558402 218.830929 
L 106.399397 218.830929 
L 106.399397 218.006543 
L 107.240392 218.006543 
L 107.240392 217.182156 
L 107.660889 217.182156 
L 107.660889 215.258587 
L 108.081387 215.258587 
L 108.081387 213.060223 
L 108.501884 213.060223 
L 108.501884 210.861859 
L 110.183873 210.861859 
L 110.183873 210.587063 
L 110.604371 210.587063 
L 110.604371 207.564312 
L 111.024868 207.564312 
L 111.024868 206.739926 
L 111.445365 206.739926 
L 111.445365 206.46513 
L 111.865863 206.46513 
L 111.865863 206.190335 
L 112.28636 206.190335 
L 112.28636 204.816357 
L 113.96835 204.816357 
L 113.96835 202.617993 
L 114.388847 202.617993 
L 114.388847 202.068401 
L 114.809344 202.068401 
L 114.809344 200.144833 
L 116.070836 200.144833 
L 116.070836 199.320446 
L 116.911831 199.320446 
L 116.911831 197.122082 
L 117.332329 197.122082 
L 117.332329 196.847286 
L 118.593821 196.847286 
L 118.593821 195.748104 
L 119.014318 195.748104 
L 119.014318 194.099331 
L 119.434815 194.099331 
L 119.434815 193.000149 
L 120.696307 193.000149 
L 120.696307 192.450558 
L 121.116805 192.450558 
L 121.116805 191.900967 
L 121.537302 191.900967 
L 121.537302 190.801784 
L 121.9578 190.801784 
L 121.9578 189.702602 
L 122.378297 189.702602 
L 122.378297 188.878216 
L 122.798794 188.878216 
L 122.798794 187.779033 
L 123.219292 187.779033 
L 123.219292 186.954647 
L 124.480784 186.954647 
L 124.480784 183.931896 
L 124.901281 183.931896 
L 124.901281 183.382305 
L 125.742276 183.382305 
L 125.742276 181.733532 
L 126.162773 181.733532 
L 126.162773 181.183941 
L 126.583271 181.183941 
L 126.583271 180.634349 
L 127.003768 180.634349 
L 127.003768 180.359554 
L 127.424265 180.359554 
L 127.424265 180.084758 
L 127.844763 180.084758 
L 127.844763 179.260372 
L 128.26526 179.260372 
L 128.26526 178.435985 
L 129.526752 178.435985 
L 129.526752 177.886394 
L 130.788244 177.886394 
L 130.788244 176.787212 
L 131.208742 176.787212 
L 131.208742 175.962825 
L 131.629239 175.962825 
L 131.629239 175.413234 
L 132.470234 175.413234 
L 132.470234 174.863643 
L 132.890731 174.863643 
L 132.890731 174.314052 
L 133.731726 174.314052 
L 133.731726 174.039257 
L 134.57272 174.039257 
L 134.57272 173.764461 
L 134.993218 173.764461 
L 134.993218 173.489665 
L 135.413715 173.489665 
L 135.413715 170.74171 
L 135.834213 170.74171 
L 135.834213 168.818141 
L 136.25471 168.818141 
L 136.25471 167.718959 
L 136.675207 167.718959 
L 136.675207 167.444164 
L 137.095705 167.444164 
L 137.095705 166.344981 
L 138.357197 166.344981 
L 138.357197 166.070186 
L 138.777694 166.070186 
L 138.777694 164.421413 
L 139.198191 164.421413 
L 139.198191 161.673457 
L 140.039186 161.673457 
L 140.039186 161.398662 
L 140.459683 161.398662 
L 140.459683 160.849071 
L 141.300678 160.849071 
L 141.300678 159.749888 
L 141.721176 159.749888 
L 141.721176 159.200297 
L 142.56217 159.200297 
L 142.56217 158.925502 
L 143.403165 158.925502 
L 143.403165 158.650706 
L 143.823662 158.650706 
L 143.823662 158.375911 
L 144.24416 158.375911 
L 144.24416 157.82632 
L 146.346647 157.82632 
L 146.346647 157.551524 
L 146.767144 157.551524 
L 146.767144 157.276729 
L 147.187641 157.276729 
L 147.187641 154.803569 
L 147.608139 154.803569 
L 147.608139 154.253978 
L 148.869631 154.253978 
L 148.869631 153.704387 
L 149.710625 153.704387 
L 149.710625 152.605204 
L 150.131123 152.605204 
L 150.131123 151.231227 
L 151.813112 151.231227 
L 151.813112 150.956431 
L 152.23361 150.956431 
L 152.23361 150.132045 
L 153.074604 150.132045 
L 153.074604 149.857249 
L 153.495102 149.857249 
L 153.495102 147.93368 
L 153.915599 147.93368 
L 153.915599 146.559703 
L 155.177091 146.559703 
L 155.177091 146.284907 
L 157.279578 146.284907 
L 157.279578 145.735316 
L 157.700075 145.735316 
L 157.700075 145.46052 
L 158.120573 145.46052 
L 158.120573 144.636134 
L 158.54107 144.636134 
L 158.54107 143.262156 
L 159.382065 143.262156 
L 159.382065 142.712565 
L 159.802562 142.712565 
L 159.802562 141.338587 
L 160.22306 141.338587 
L 160.22306 140.788996 
L 161.064054 140.788996 
L 161.064054 140.514201 
L 162.325546 140.514201 
L 162.325546 140.239405 
L 164.007536 140.239405 
L 164.007536 139.689814 
L 164.848531 139.689814 
L 164.848531 139.415019 
L 166.53052 139.415019 
L 166.53052 138.590632 
L 167.371515 138.590632 
L 167.371515 138.315836 
L 169.474002 138.315836 
L 169.474002 138.041041 
L 169.894499 138.041041 
L 169.894499 137.766245 
L 171.576488 137.766245 
L 171.576488 137.49145 
L 172.417483 137.49145 
L 172.417483 136.941859 
L 173.258478 136.941859 
L 173.258478 136.117472 
L 174.099472 136.117472 
L 174.099472 135.567881 
L 174.51997 135.567881 
L 174.51997 135.293086 
L 174.940467 135.293086 
L 174.940467 134.468699 
L 177.883949 134.468699 
L 177.883949 132.54513 
L 178.304446 132.54513 
L 178.304446 132.270335 
L 178.724943 132.270335 
L 178.724943 131.720743 
L 180.82743 131.720743 
L 180.82743 131.445948 
L 182.088922 131.445948 
L 182.088922 130.896357 
L 182.929917 130.896357 
L 182.929917 130.07197 
L 183.350414 130.07197 
L 183.350414 128.697993 
L 185.032404 128.697993 
L 185.032404 127.324015 
L 187.555388 127.324015 
L 187.555388 126.774424 
L 188.396383 126.774424 
L 188.396383 126.499628 
L 189.657875 126.499628 
L 189.657875 126.224833 
L 193.021854 126.224833 
L 193.021854 125.675242 
L 194.283346 125.675242 
L 194.283346 124.850855 
L 194.703843 124.850855 
L 194.703843 124.576059 
L 196.385833 124.576059 
L 196.385833 124.026468 
L 198.48832 124.026468 
L 198.48832 123.476877 
L 198.908817 123.476877 
L 198.908817 122.927286 
L 201.011304 122.927286 
L 201.011304 122.1029 
L 202.693293 122.1029 
L 202.693293 121.828104 
L 203.954785 121.828104 
L 203.954785 120.728922 
L 204.375283 120.728922 
L 204.375283 120.179331 
L 206.057272 120.179331 
L 206.057272 119.904535 
L 206.477769 119.904535 
L 206.477769 119.62974 
L 206.898267 119.62974 
L 206.898267 119.354944 
L 208.580256 119.354944 
L 208.580256 116.881784 
L 209.000754 116.881784 
L 209.000754 116.606989 
L 209.841748 116.606989 
L 209.841748 116.332193 
L 210.262246 116.332193 
L 210.262246 116.057398 
L 211.944235 116.057398 
L 211.944235 115.782602 
L 212.78523 115.782602 
L 212.78523 115.507807 
L 213.205727 115.507807 
L 213.205727 115.233011 
L 213.626225 115.233011 
L 213.626225 114.958216 
L 214.046722 114.958216 
L 214.046722 114.68342 
L 216.569706 114.68342 
L 216.569706 114.408625 
L 217.831198 114.408625 
L 217.831198 113.584238 
L 219.513188 113.584238 
L 219.513188 113.309442 
L 220.77468 113.309442 
L 220.77468 113.034647 
L 221.195177 113.034647 
L 221.195177 112.485056 
L 222.456669 112.485056 
L 222.456669 111.935465 
L 224.559156 111.935465 
L 224.559156 111.660669 
L 227.08214 111.660669 
L 227.08214 110.561487 
L 227.502638 110.561487 
L 227.502638 110.286691 
L 228.343632 110.286691 
L 228.343632 109.7371 
L 228.76413 109.7371 
L 228.76413 109.462305 
L 229.184627 109.462305 
L 229.184627 109.187509 
L 230.446119 109.187509 
L 230.446119 108.912714 
L 232.969103 108.912714 
L 232.969103 107.538736 
L 234.651093 107.538736 
L 234.651093 107.263941 
L 235.07159 107.263941 
L 235.07159 105.889963 
L 236.333082 105.889963 
L 236.333082 105.615167 
L 238.015072 105.615167 
L 238.015072 105.340372 
L 238.435569 105.340372 
L 238.435569 105.065576 
L 238.856066 105.065576 
L 238.856066 104.790781 
L 240.117558 104.790781 
L 240.117558 104.515985 
L 240.538056 104.515985 
L 240.538056 103.966394 
L 240.958553 103.966394 
L 240.958553 103.691599 
L 241.799548 103.691599 
L 241.799548 103.142007 
L 242.640543 103.142007 
L 242.640543 102.592416 
L 243.902035 102.592416 
L 244.322532 99.844461 
L 245.163527 99.844461 
L 245.163527 99.29487 
L 246.004521 99.29487 
L 246.004521 99.020074 
L 246.845516 99.020074 
L 246.845516 98.745279 
L 248.107008 98.745279 
L 248.107008 98.470483 
L 248.527506 98.470483 
L 248.527506 98.195688 
L 248.948003 98.195688 
L 248.948003 97.920892 
L 250.209495 97.920892 
L 250.209495 96.546914 
L 250.629992 96.546914 
L 250.629992 96.272119 
L 251.470987 96.272119 
L 251.470987 95.997323 
L 251.891485 95.997323 
L 251.891485 95.722528 
L 252.732479 95.722528 
L 252.732479 95.447732 
L 255.675961 95.447732 
L 255.675961 95.172937 
L 257.35795 95.172937 
L 257.35795 94.898141 
L 261.142427 94.898141 
L 261.142427 94.623346 
L 265.767898 94.623346 
L 265.767898 93.798959 
L 269.131876 93.798959 
L 269.131876 93.249368 
L 269.552374 93.249368 
L 269.552374 92.424981 
L 270.393369 92.424981 
L 270.393369 92.150186 
L 274.598342 92.150186 
L 274.598342 91.600595 
L 281.746797 91.600595 
L 281.746797 91.325799 
L 285.110776 91.325799 
L 285.110776 91.051004 
L 290.156745 91.051004 
L 290.156745 90.226617 
L 294.361718 90.226617 
L 294.361718 89.951822 
L 301.930671 89.951822 
L 301.930671 89.40223 
L 302.351168 89.40223 
L 302.351168 89.127435 
L 302.771665 89.127435 
L 302.771665 88.303048 
L 305.715147 88.303048 
L 305.715147 88.028253 
L 308.658628 88.028253 
L 308.658628 87.753457 
L 309.079126 87.753457 
L 309.079126 87.478662 
L 310.761115 87.478662 
L 310.761115 87.203866 
L 315.386586 87.203866 
L 315.386586 86.929071 
L 317.90957 86.929071 
L 318.330068 86.37948 
L 321.273549 86.37948 
L 321.273549 86.104684 
L 332.206481 86.104684 
L 332.206481 85.829888 
L 335.149962 85.829888 
L 335.149962 85.555093 
L 341.036925 85.555093 
L 341.036925 85.005502 
L 343.55991 85.005502 
L 343.55991 84.730706 
L 346.923888 84.730706 
L 346.923888 84.455911 
L 349.86737 84.455911 
L 349.86737 84.181115 
L 355.333836 84.181115 
L 355.333836 83.90632 
L 356.17483 83.90632 
L 356.17483 83.631524 
L 359.538809 83.631524 
L 359.538809 83.356729 
L 362.482291 83.356729 
L 362.482291 83.081933 
L 366.266767 83.081933 
L 366.266767 82.807138 
L 371.733233 82.807138 
L 371.733233 82.532342 
L 374.676714 82.532342 
L 374.676714 82.257546 
L 379.302185 82.257546 
L 379.302185 81.982751 
L 382.245667 81.982751 
L 382.245667 81.707955 
L 397.383572 81.707955 
L 397.383572 81.43316 
L 411.259985 81.43316 
L 411.259985 81.158364 
L 423.874906 81.158364 
L 423.874906 80.883569 
L 428.500377 80.883569 
L 428.500377 80.608773 
L 436.489827 80.608773 
L 436.489827 80.333978 
L 452.889224 80.333978 
L 452.889224 80.059182 
L 456.6737 80.059182 
L 456.6737 79.509591 
L 469.288621 79.509591 
L 469.288621 79.234796 
L 615.621703 79.234796 
L 615.621703 78.96 
L 648 78.96 
L 648 78.96 
" clip-path="url(#p41eb98398b)" style="fill: none; stroke: #2ca02c; stroke-width: 2; stroke-linecap: square"/>
   </g>
   <g id="line2d_16">
    <path d="M 90 448.56 
L 90 236.417844 
L 90.420497 236.417844 
L 90.420497 168.543346 
L 90.840995 168.543346 
L 90.840995 134.193903 
L 91.261492 134.193903 
L 91.261492 128.148401 
L 91.681989 128.148401 
L 91.681989 111.935465 
L 92.102487 111.935465 
L 92.102487 107.263941 
L 92.522984 103.966394 
L 92.522984 100.119257 
L 92.943482 100.119257 
L 92.943482 96.272119 
L 93.363979 96.272119 
L 93.363979 89.127435 
L 93.784476 88.577844 
L 93.784476 87.478662 
L 94.625471 87.478662 
L 94.625471 85.555093 
L 95.045968 85.555093 
L 95.045968 85.005502 
L 95.886963 85.005502 
L 95.886963 84.181115 
L 96.727958 84.181115 
L 96.727958 83.90632 
L 97.148455 83.90632 
L 97.148455 83.631524 
L 97.98945 83.631524 
L 97.98945 83.356729 
L 98.409947 83.356729 
L 98.409947 83.081933 
L 98.830445 83.081933 
L 98.830445 82.807138 
L 102.194424 82.807138 
L 102.194424 82.532342 
L 106.399397 82.532342 
L 106.399397 82.257546 
L 107.660889 82.257546 
L 107.660889 81.982751 
L 111.024868 81.982751 
L 111.024868 81.707955 
L 114.388847 81.707955 
L 114.388847 81.43316 
L 115.229842 81.43316 
L 115.229842 81.158364 
L 115.650339 81.158364 
L 115.650339 80.883569 
L 116.491334 80.883569 
L 116.491334 80.608773 
L 119.855313 80.608773 
L 119.855313 80.333978 
L 124.060286 80.333978 
L 124.060286 80.059182 
L 137.095705 80.059182 
L 137.095705 79.784387 
L 145.505652 79.784387 
L 145.505652 79.509591 
L 150.131123 79.509591 
L 150.131123 79.234796 
L 175.360965 79.234796 
L 175.360965 78.96 
L 648 78.96 
L 648 78.96 
" clip-path="url(#p41eb98398b)" style="fill: none; stroke: #d62728; stroke-width: 2; stroke-linecap: square"/>
   </g>
   <g id="line2d_17">
    <path d="M 90 448.56 
L 90 200.419628 
L 90 199.870037 
L 90 198.770855 
L 90 158.925502 
L 90 158.375911 
L 90 157.82632 
L 90 138.590632 
L 90 129.247584 
L 90.420497 126.499628 
L 90.420497 125.950037 
L 90.840995 118.530558 
L 90.840995 118.255762 
L 90.840995 113.859033 
L 90.840995 109.462305 
L 90.840995 108.912714 
L 90.840995 105.065576 
L 90.840995 104.790781 
L 91.261492 101.76803 
L 91.261492 100.668848 
L 91.261492 99.020074 
L 91.681989 99.020074 
L 92.102487 97.646097 
L 92.102487 96.272119 
L 92.102487 94.073755 
L 92.102487 93.798959 
L 92.102487 92.699777 
L 92.102487 92.150186 
L 92.522984 91.87539 
L 92.943482 91.325799 
L 92.943482 90.776208 
L 92.943482 89.951822 
L 92.943482 89.40223 
L 93.784476 88.852639 
L 93.784476 88.303048 
L 94.204974 87.753457 
L 94.204974 87.203866 
L 94.204974 86.929071 
L 94.625471 86.929071 
L 94.625471 85.829888 
L 95.045968 85.555093 
L 95.045968 85.005502 
L 95.045968 84.455911 
L 95.045968 84.181115 
L 95.466466 84.181115 
L 95.466466 83.90632 
L 96.30746 83.356729 
L 96.30746 82.807138 
L 97.148455 82.532342 
L 97.568953 82.532342 
L 97.98945 81.982751 
L 98.830445 81.982751 
L 99.250942 81.982751 
L 99.250942 81.707955 
L 100.512434 81.707955 
L 100.932931 81.707955 
L 101.353429 81.43316 
L 102.194424 81.43316 
L 102.614921 81.43316 
L 104.29691 81.43316 
L 105.558402 81.43316 
L 106.819894 81.43316 
L 108.922381 81.43316 
L 109.763376 81.43316 
L 110.183873 81.43316 
L 111.865863 81.43316 
L 112.706858 81.158364 
L 115.229842 81.158364 
L 115.650339 81.158364 
L 116.491334 81.158364 
L 116.911831 81.158364 
L 117.752826 81.158364 
L 119.434815 81.158364 
L 120.27581 81.158364 
L 122.798794 81.158364 
L 123.639789 80.608773 
L 124.060286 80.608773 
L 127.424265 80.608773 
L 127.844763 80.608773 
L 129.106255 80.333978 
L 129.526752 80.333978 
L 131.208742 79.784387 
L 132.049736 79.784387 
L 133.731726 79.509591 
L 134.152223 79.509591 
L 134.993218 79.509591 
L 138.357197 79.509591 
L 139.198191 79.509591 
L 141.721176 79.509591 
L 145.085154 79.234796 
L 148.869631 79.234796 
L 153.495102 79.234796 
L 157.279578 78.96 
L 165.269028 78.96 
L 174.940467 78.96 
L 196.385833 78.96 
L 225.400151 78.96 
L 273.757347 78.96 
L 368.789751 78.96 
L 648 78.96 
" clip-path="url(#p41eb98398b)" style="fill: none; stroke: #9467bd; stroke-width: 2; stroke-linecap: square"/>
   </g>
   <g id="line2d_18">
    <path d="M 90 448.56 
L 103.876413 87.753457 
L 104.29691 85.005502 
L 104.717408 83.90632 
L 105.137905 83.631524 
L 648 78.96 
" clip-path="url(#p41eb98398b)" style="fill: none; stroke: #8c564b; stroke-width: 2; stroke-linecap: square"/>
   </g>
   <g id="line2d_19">
    <path d="M 90 448.56 
L 104.29691 143.536952 
L 120.27581 109.7371 
L 153.915599 91.600595 
L 192.180859 83.90632 
L 239.276564 80.333978 
L 648 78.96 
" clip-path="url(#p41eb98398b)" style="fill: none; stroke: #e377c2; stroke-width: 2; stroke-linecap: square"/>
   </g>
   <g id="line2d_20">
    <path d="M 90 448.56 
L 648 78.96 
" clip-path="url(#p41eb98398b)" style="fill: none; stroke-dasharray: 7.4,3.2; stroke-dashoffset: 0; stroke: #000080; stroke-width: 2"/>
   </g>
   <g id="patch_3">
    <path d="M 90 448.56 
L 90 60.48 
" style="fill: none; stroke: #000000; stroke-width: 0.8; stroke-linejoin: miter; stroke-linecap: square"/>
   </g>
   <g id="patch_4">
    <path d="M 648 448.56 
L 648 60.48 
" style="fill: none; stroke: #000000; stroke-width: 0.8; stroke-linejoin: miter; stroke-linecap: square"/>
   </g>
   <g id="patch_5">
    <path d="M 90 448.56 
L 648 448.56 
" style="fill: none; stroke: #000000; stroke-width: 0.8; stroke-linejoin: miter; stroke-linecap: square"/>
   </g>
   <g id="patch_6">
    <path d="M 90 60.48 
L 648 60.48 
" style="fill: none; stroke: #000000; stroke-width: 0.8; stroke-linejoin: miter; stroke-linecap: square"/>
   </g>
   <g id="text_15">
    <!-- ROC Curves -->
    <g transform="translate(333.18375 54.48) scale(0.12 -0.12)">
     <defs>
      <path id="DejaVuSans-4f" d="M 2522 4238 
Q 1834 4238 1429 3725 
Q 1025 3213 1025 2328 
Q 1025 1447 1429 934 
Q 1834 422 2522 422 
Q 3209 422 3611 934 
Q 4013 1447 4013 2328 
Q 4013 3213 3611 3725 
Q 3209 4238 2522 4238 
z
M 2522 4750 
Q 3503 4750 4090 4092 
Q 4678 3434 4678 2328 
Q 4678 1225 4090 567 
Q 3503 -91 2522 -91 
Q 1538 -91 948 565 
Q 359 1222 359 2328 
Q 359 3434 948 4092 
Q 1538 4750 2522 4750 
z
" transform="scale(0.015625)"/>
      <path id="DejaVuSans-43" d="M 4122 4306 
L 4122 3641 
Q 3803 3938 3442 4084 
Q 3081 4231 2675 4231 
Q 1875 4231 1450 3742 
Q 1025 3253 1025 2328 
Q 1025 1406 1450 917 
Q 1875 428 2675 428 
Q 3081 428 3442 575 
Q 3803 722 4122 1019 
L 4122 359 
Q 3791 134 3420 21 
Q 3050 -91 2638 -91 
Q 1578 -91 968 557 
Q 359 1206 359 2328 
Q 359 3453 968 4101 
Q 1578 4750 2638 4750 
Q 3056 4750 3426 4639 
Q 3797 4528 4122 4306 
z
" transform="scale(0.015625)"/>
     </defs>
     <use xlink:href="#DejaVuSans-52"/>
     <use xlink:href="#DejaVuSans-4f" x="69.482422"/>
     <use xlink:href="#DejaVuSans-43" x="148.193359"/>
     <use xlink:href="#DejaVuSans-20" x="218.017578"/>
     <use xlink:href="#DejaVuSans-43" x="249.804688"/>
     <use xlink:href="#DejaVuSans-75" x="319.628906"/>
     <use xlink:href="#DejaVuSans-72" x="383.007812"/>
     <use xlink:href="#DejaVuSans-76" x="424.121094"/>
     <use xlink:href="#DejaVuSans-65" x="483.300781"/>
     <use xlink:href="#DejaVuSans-73" x="544.824219"/>
    </g>
   </g>
   <g id="legend_1">
    <g id="patch_7">
     <path d="M 425.039062 443.56 
L 641 443.56 
Q 643 443.56 643 441.56 
L 643 339.535 
Q 643 337.535 641 337.535 
L 425.039062 337.535 
Q 423.039062 337.535 423.039062 339.535 
L 423.039062 441.56 
Q 423.039062 443.56 425.039062 443.56 
z
" style="fill: #ffffff; opacity: 0.8; stroke: #cccccc; stroke-linejoin: miter"/>
    </g>
    <g id="line2d_21">
     <path d="M 427.039062 345.633438 
L 437.039062 345.633438 
L 447.039062 345.633438 
" style="fill: none; stroke: #1f77b4; stroke-width: 2; stroke-linecap: square"/>
    </g>
    <g id="text_16">
     <!-- SelectKBest_RF (AUC = 0.9981) -->
     <g transform="translate(455.039062 349.133438) scale(0.1 -0.1)">
      <defs>
       <path id="DejaVuSans-53" d="M 3425 4513 
L 3425 3897 
Q 3066 4069 2747 4153 
Q 2428 4238 2131 4238 
Q 1616 4238 1336 4038 
Q 1056 3838 1056 3469 
Q 1056 3159 1242 3001 
Q 1428 2844 1947 2747 
L 2328 2669 
Q 3034 2534 3370 2195 
Q 3706 1856 3706 1288 
Q 3706 609 3251 259 
Q 2797 -91 1919 -91 
Q 1588 -91 1214 -16 
Q 841 59 441 206 
L 441 856 
Q 825 641 1194 531 
Q 1563 422 1919 422 
Q 2459 422 2753 634 
Q 3047 847 3047 1241 
Q 3047 1584 2836 1778 
Q 2625 1972 2144 2069 
L 1759 2144 
Q 1053 2284 737 2584 
Q 422 2884 422 3419 
Q 422 4038 858 4394 
Q 1294 4750 2059 4750 
Q 2388 4750 2728 4690 
Q 3069 4631 3425 4513 
z
" transform="scale(0.015625)"/>
       <path id="DejaVuSans-63" d="M 3122 3366 
L 3122 2828 
Q 2878 2963 2633 3030 
Q 2388 3097 2138 3097 
Q 1578 3097 1268 2742 
Q 959 2388 959 1747 
Q 959 1106 1268 751 
Q 1578 397 2138 397 
Q 2388 397 2633 464 
Q 2878 531 3122 666 
L 3122 134 
Q 2881 22 2623 -34 
Q 2366 -91 2075 -91 
Q 1284 -91 818 406 
Q 353 903 353 1747 
Q 353 2603 823 3093 
Q 1294 3584 2113 3584 
Q 2378 3584 2631 3529 
Q 2884 3475 3122 3366 
z
" transform="scale(0.015625)"/>
       <path id="DejaVuSans-4b" d="M 628 4666 
L 1259 4666 
L 1259 2694 
L 3353 4666 
L 4166 4666 
L 1850 2491 
L 4331 0 
L 3500 0 
L 1259 2247 
L 1259 0 
L 628 0 
L 628 4666 
z
" transform="scale(0.015625)"/>
       <path id="DejaVuSans-42" d="M 1259 2228 
L 1259 519 
L 2272 519 
Q 2781 519 3026 730 
Q 3272 941 3272 1375 
Q 3272 1813 3026 2020 
Q 2781 2228 2272 2228 
L 1259 2228 
z
M 1259 4147 
L 1259 2741 
L 2194 2741 
Q 2656 2741 2882 2914 
Q 3109 3088 3109 3444 
Q 3109 3797 2882 3972 
Q 2656 4147 2194 4147 
L 1259 4147 
z
M 628 4666 
L 2241 4666 
Q 2963 4666 3353 4366 
Q 3744 4066 3744 3513 
Q 3744 3084 3544 2831 
Q 3344 2578 2956 2516 
Q 3422 2416 3680 2098 
Q 3938 1781 3938 1306 
Q 3938 681 3513 340 
Q 3088 0 2303 0 
L 628 0 
L 628 4666 
z
" transform="scale(0.015625)"/>
       <path id="DejaVuSans-5f" d="M 3263 -1063 
L 3263 -1509 
L -63 -1509 
L -63 -1063 
L 3263 -1063 
z
" transform="scale(0.015625)"/>
       <path id="DejaVuSans-28" d="M 1984 4856 
Q 1566 4138 1362 3434 
Q 1159 2731 1159 2009 
Q 1159 1288 1364 580 
Q 1569 -128 1984 -844 
L 1484 -844 
Q 1016 -109 783 600 
Q 550 1309 550 2009 
Q 550 2706 781 3412 
Q 1013 4119 1484 4856 
L 1984 4856 
z
" transform="scale(0.015625)"/>
       <path id="DejaVuSans-41" d="M 2188 4044 
L 1331 1722 
L 3047 1722 
L 2188 4044 
z
M 1831 4666 
L 2547 4666 
L 4325 0 
L 3669 0 
L 3244 1197 
L 1141 1197 
L 716 0 
L 50 0 
L 1831 4666 
z
" transform="scale(0.015625)"/>
       <path id="DejaVuSans-55" d="M 556 4666 
L 1191 4666 
L 1191 1831 
Q 1191 1081 1462 751 
Q 1734 422 2344 422 
Q 2950 422 3222 751 
Q 3494 1081 3494 1831 
L 3494 4666 
L 4128 4666 
L 4128 1753 
Q 4128 841 3676 375 
Q 3225 -91 2344 -91 
Q 1459 -91 1007 375 
Q 556 841 556 1753 
L 556 4666 
z
" transform="scale(0.015625)"/>
       <path id="DejaVuSans-3d" d="M 678 2906 
L 4684 2906 
L 4684 2381 
L 678 2381 
L 678 2906 
z
M 678 1631 
L 4684 1631 
L 4684 1100 
L 678 1100 
L 678 1631 
z
" transform="scale(0.015625)"/>
       <path id="DejaVuSans-39" d="M 703 97 
L 703 672 
Q 941 559 1184 500 
Q 1428 441 1663 441 
Q 2288 441 2617 861 
Q 2947 1281 2994 2138 
Q 2813 1869 2534 1725 
Q 2256 1581 1919 1581 
Q 1219 1581 811 2004 
Q 403 2428 403 3163 
Q 403 3881 828 4315 
Q 1253 4750 1959 4750 
Q 2769 4750 3195 4129 
Q 3622 3509 3622 2328 
Q 3622 1225 3098 567 
Q 2575 -91 1691 -91 
Q 1453 -91 1209 -44 
Q 966 3 703 97 
z
M 1959 2075 
Q 2384 2075 2632 2365 
Q 2881 2656 2881 3163 
Q 2881 3666 2632 3958 
Q 2384 4250 1959 4250 
Q 1534 4250 1286 3958 
Q 1038 3666 1038 3163 
Q 1038 2656 1286 2365 
Q 1534 2075 1959 2075 
z
" transform="scale(0.015625)"/>
       <path id="DejaVuSans-29" d="M 513 4856 
L 1013 4856 
Q 1481 4119 1714 3412 
Q 1947 2706 1947 2009 
Q 1947 1309 1714 600 
Q 1481 -109 1013 -844 
L 513 -844 
Q 928 -128 1133 580 
Q 1338 1288 1338 2009 
Q 1338 2731 1133 3434 
Q 928 4138 513 4856 
z
" transform="scale(0.015625)"/>
      </defs>
      <use xlink:href="#DejaVuSans-53"/>
      <use xlink:href="#DejaVuSans-65" x="63.476562"/>
      <use xlink:href="#DejaVuSans-6c" x="125"/>
      <use xlink:href="#DejaVuSans-65" x="152.783203"/>
      <use xlink:href="#DejaVuSans-63" x="214.306641"/>
      <use xlink:href="#DejaVuSans-74" x="269.287109"/>
      <use xlink:href="#DejaVuSans-4b" x="308.496094"/>
      <use xlink:href="#DejaVuSans-42" x="374.072266"/>
      <use xlink:href="#DejaVuSans-65" x="442.675781"/>
      <use xlink:href="#DejaVuSans-73" x="504.199219"/>
      <use xlink:href="#DejaVuSans-74" x="556.298828"/>
      <use xlink:href="#DejaVuSans-5f" x="595.507812"/>
      <use xlink:href="#DejaVuSans-52" x="645.507812"/>
      <use xlink:href="#DejaVuSans-46" x="714.990234"/>
      <use xlink:href="#DejaVuSans-20" x="772.509766"/>
      <use xlink:href="#DejaVuSans-28" x="804.296875"/>
      <use xlink:href="#DejaVuSans-41" x="843.310547"/>
      <use xlink:href="#DejaVuSans-55" x="911.71875"/>
      <use xlink:href="#DejaVuSans-43" x="984.912109"/>
      <use xlink:href="#DejaVuSans-20" x="1054.736328"/>
      <use xlink:href="#DejaVuSans-3d" x="1086.523438"/>
      <use xlink:href="#DejaVuSans-20" x="1170.3125"/>
      <use xlink:href="#DejaVuSans-30" x="1202.099609"/>
      <use xlink:href="#DejaVuSans-2e" x="1265.722656"/>
      <use xlink:href="#DejaVuSans-39" x="1297.509766"/>
      <use xlink:href="#DejaVuSans-39" x="1361.132812"/>
      <use xlink:href="#DejaVuSans-38" x="1424.755859"/>
      <use xlink:href="#DejaVuSans-31" x="1488.378906"/>
      <use xlink:href="#DejaVuSans-29" x="1552.001953"/>
     </g>
    </g>
    <g id="line2d_22">
     <path d="M 427.039062 360.589688 
L 437.039062 360.589688 
L 447.039062 360.589688 
" style="fill: none; stroke: #ff7f0e; stroke-width: 2; stroke-linecap: square"/>
    </g>
    <g id="text_17">
     <!-- SVM (AUC = 0.7038) -->
     <g transform="translate(455.039062 364.089688) scale(0.1 -0.1)">
      <defs>
       <path id="DejaVuSans-56" d="M 1831 0 
L 50 4666 
L 709 4666 
L 2188 738 
L 3669 4666 
L 4325 4666 
L 2547 0 
L 1831 0 
z
" transform="scale(0.015625)"/>
       <path id="DejaVuSans-4d" d="M 628 4666 
L 1569 4666 
L 2759 1491 
L 3956 4666 
L 4897 4666 
L 4897 0 
L 4281 0 
L 4281 4097 
L 3078 897 
L 2444 897 
L 1241 4097 
L 1241 0 
L 628 0 
L 628 4666 
z
" transform="scale(0.015625)"/>
       <path id="DejaVuSans-37" d="M 525 4666 
L 3525 4666 
L 3525 4397 
L 1831 0 
L 1172 0 
L 2766 4134 
L 525 4134 
L 525 4666 
z
" transform="scale(0.015625)"/>
       <path id="DejaVuSans-33" d="M 2597 2516 
Q 3050 2419 3304 2112 
Q 3559 1806 3559 1356 
Q 3559 666 3084 287 
Q 2609 -91 1734 -91 
Q 1441 -91 1130 -33 
Q 819 25 488 141 
L 488 750 
Q 750 597 1062 519 
Q 1375 441 1716 441 
Q 2309 441 2620 675 
Q 2931 909 2931 1356 
Q 2931 1769 2642 2001 
Q 2353 2234 1838 2234 
L 1294 2234 
L 1294 2753 
L 1863 2753 
Q 2328 2753 2575 2939 
Q 2822 3125 2822 3475 
Q 2822 3834 2567 4026 
Q 2313 4219 1838 4219 
Q 1578 4219 1281 4162 
Q 984 4106 628 3988 
L 628 4550 
Q 988 4650 1302 4700 
Q 1616 4750 1894 4750 
Q 2613 4750 3031 4423 
Q 3450 4097 3450 3541 
Q 3450 3153 3228 2886 
Q 3006 2619 2597 2516 
z
" transform="scale(0.015625)"/>
      </defs>
      <use xlink:href="#DejaVuSans-53"/>
      <use xlink:href="#DejaVuSans-56" x="63.476562"/>
      <use xlink:href="#DejaVuSans-4d" x="131.884766"/>
      <use xlink:href="#DejaVuSans-20" x="218.164062"/>
      <use xlink:href="#DejaVuSans-28" x="249.951172"/>
      <use xlink:href="#DejaVuSans-41" x="288.964844"/>
      <use xlink:href="#DejaVuSans-55" x="357.373047"/>
      <use xlink:href="#DejaVuSans-43" x="430.566406"/>
      <use xlink:href="#DejaVuSans-20" x="500.390625"/>
      <use xlink:href="#DejaVuSans-3d" x="532.177734"/>
      <use xlink:href="#DejaVuSans-20" x="615.966797"/>
      <use xlink:href="#DejaVuSans-30" x="647.753906"/>
      <use xlink:href="#DejaVuSans-2e" x="711.376953"/>
      <use xlink:href="#DejaVuSans-37" x="743.164062"/>
      <use xlink:href="#DejaVuSans-30" x="806.787109"/>
      <use xlink:href="#DejaVuSans-33" x="870.410156"/>
      <use xlink:href="#DejaVuSans-38" x="934.033203"/>
      <use xlink:href="#DejaVuSans-29" x="997.65625"/>
     </g>
    </g>
    <g id="line2d_23">
     <path d="M 427.039062 375.267812 
L 437.039062 375.267812 
L 447.039062 375.267812 
" style="fill: none; stroke: #2ca02c; stroke-width: 2; stroke-linecap: square"/>
    </g>
    <g id="text_18">
     <!-- Logistic Regression (AUC = 0.9367) -->
     <g transform="translate(455.039062 378.767812) scale(0.1 -0.1)">
      <defs>
       <path id="DejaVuSans-4c" d="M 628 4666 
L 1259 4666 
L 1259 531 
L 3531 531 
L 3531 0 
L 628 0 
L 628 4666 
z
" transform="scale(0.015625)"/>
       <path id="DejaVuSans-67" d="M 2906 1791 
Q 2906 2416 2648 2759 
Q 2391 3103 1925 3103 
Q 1463 3103 1205 2759 
Q 947 2416 947 1791 
Q 947 1169 1205 825 
Q 1463 481 1925 481 
Q 2391 481 2648 825 
Q 2906 1169 2906 1791 
z
M 3481 434 
Q 3481 -459 3084 -895 
Q 2688 -1331 1869 -1331 
Q 1566 -1331 1297 -1286 
Q 1028 -1241 775 -1147 
L 775 -588 
Q 1028 -725 1275 -790 
Q 1522 -856 1778 -856 
Q 2344 -856 2625 -561 
Q 2906 -266 2906 331 
L 2906 616 
Q 2728 306 2450 153 
Q 2172 0 1784 0 
Q 1141 0 747 490 
Q 353 981 353 1791 
Q 353 2603 747 3093 
Q 1141 3584 1784 3584 
Q 2172 3584 2450 3431 
Q 2728 3278 2906 2969 
L 2906 3500 
L 3481 3500 
L 3481 434 
z
" transform="scale(0.015625)"/>
       <path id="DejaVuSans-6e" d="M 3513 2113 
L 3513 0 
L 2938 0 
L 2938 2094 
Q 2938 2591 2744 2837 
Q 2550 3084 2163 3084 
Q 1697 3084 1428 2787 
Q 1159 2491 1159 1978 
L 1159 0 
L 581 0 
L 581 3500 
L 1159 3500 
L 1159 2956 
Q 1366 3272 1645 3428 
Q 1925 3584 2291 3584 
Q 2894 3584 3203 3211 
Q 3513 2838 3513 2113 
z
" transform="scale(0.015625)"/>
      </defs>
      <use xlink:href="#DejaVuSans-4c"/>
      <use xlink:href="#DejaVuSans-6f" x="53.962891"/>
      <use xlink:href="#DejaVuSans-67" x="115.144531"/>
      <use xlink:href="#DejaVuSans-69" x="178.621094"/>
      <use xlink:href="#DejaVuSans-73" x="206.404297"/>
      <use xlink:href="#DejaVuSans-74" x="258.503906"/>
      <use xlink:href="#DejaVuSans-69" x="297.712891"/>
      <use xlink:href="#DejaVuSans-63" x="325.496094"/>
      <use xlink:href="#DejaVuSans-20" x="380.476562"/>
      <use xlink:href="#DejaVuSans-52" x="412.263672"/>
      <use xlink:href="#DejaVuSans-65" x="477.246094"/>
      <use xlink:href="#DejaVuSans-67" x="538.769531"/>
      <use xlink:href="#DejaVuSans-72" x="602.246094"/>
      <use xlink:href="#DejaVuSans-65" x="641.109375"/>
      <use xlink:href="#DejaVuSans-73" x="702.632812"/>
      <use xlink:href="#DejaVuSans-73" x="754.732422"/>
      <use xlink:href="#DejaVuSans-69" x="806.832031"/>
      <use xlink:href="#DejaVuSans-6f" x="834.615234"/>
      <use xlink:href="#DejaVuSans-6e" x="895.796875"/>
      <use xlink:href="#DejaVuSans-20" x="959.175781"/>
      <use xlink:href="#DejaVuSans-28" x="990.962891"/>
      <use xlink:href="#DejaVuSans-41" x="1029.976562"/>
      <use xlink:href="#DejaVuSans-55" x="1098.384766"/>
      <use xlink:href="#DejaVuSans-43" x="1171.578125"/>
      <use xlink:href="#DejaVuSans-20" x="1241.402344"/>
      <use xlink:href="#DejaVuSans-3d" x="1273.189453"/>
      <use xlink:href="#DejaVuSans-20" x="1356.978516"/>
      <use xlink:href="#DejaVuSans-30" x="1388.765625"/>
      <use xlink:href="#DejaVuSans-2e" x="1452.388672"/>
      <use xlink:href="#DejaVuSans-39" x="1484.175781"/>
      <use xlink:href="#DejaVuSans-33" x="1547.798828"/>
      <use xlink:href="#DejaVuSans-36" x="1611.421875"/>
      <use xlink:href="#DejaVuSans-37" x="1675.044922"/>
      <use xlink:href="#DejaVuSans-29" x="1738.667969"/>
     </g>
    </g>
    <g id="line2d_24">
     <path d="M 427.039062 389.945938 
L 437.039062 389.945938 
L 447.039062 389.945938 
" style="fill: none; stroke: #d62728; stroke-width: 2; stroke-linecap: square"/>
    </g>
    <g id="text_19">
     <!-- LightGBM (AUC = 0.9984) -->
     <g transform="translate(455.039062 393.445938) scale(0.1 -0.1)">
      <defs>
       <path id="DejaVuSans-68" d="M 3513 2113 
L 3513 0 
L 2938 0 
L 2938 2094 
Q 2938 2591 2744 2837 
Q 2550 3084 2163 3084 
Q 1697 3084 1428 2787 
Q 1159 2491 1159 1978 
L 1159 0 
L 581 0 
L 581 4863 
L 1159 4863 
L 1159 2956 
Q 1366 3272 1645 3428 
Q 1925 3584 2291 3584 
Q 2894 3584 3203 3211 
Q 3513 2838 3513 2113 
z
" transform="scale(0.015625)"/>
       <path id="DejaVuSans-47" d="M 3809 666 
L 3809 1919 
L 2778 1919 
L 2778 2438 
L 4434 2438 
L 4434 434 
Q 4069 175 3628 42 
Q 3188 -91 2688 -91 
Q 1594 -91 976 548 
Q 359 1188 359 2328 
Q 359 3472 976 4111 
Q 1594 4750 2688 4750 
Q 3144 4750 3555 4637 
Q 3966 4525 4313 4306 
L 4313 3634 
Q 3963 3931 3569 4081 
Q 3175 4231 2741 4231 
Q 1884 4231 1454 3753 
Q 1025 3275 1025 2328 
Q 1025 1384 1454 906 
Q 1884 428 2741 428 
Q 3075 428 3337 486 
Q 3600 544 3809 666 
z
" transform="scale(0.015625)"/>
      </defs>
      <use xlink:href="#DejaVuSans-4c"/>
      <use xlink:href="#DejaVuSans-69" x="55.712891"/>
      <use xlink:href="#DejaVuSans-67" x="83.496094"/>
      <use xlink:href="#DejaVuSans-68" x="146.972656"/>
      <use xlink:href="#DejaVuSans-74" x="210.351562"/>
      <use xlink:href="#DejaVuSans-47" x="249.560547"/>
      <use xlink:href="#DejaVuSans-42" x="327.050781"/>
      <use xlink:href="#DejaVuSans-4d" x="395.654297"/>
      <use xlink:href="#DejaVuSans-20" x="481.933594"/>
      <use xlink:href="#DejaVuSans-28" x="513.720703"/>
      <use xlink:href="#DejaVuSans-41" x="552.734375"/>
      <use xlink:href="#DejaVuSans-55" x="621.142578"/>
      <use xlink:href="#DejaVuSans-43" x="694.335938"/>
      <use xlink:href="#DejaVuSans-20" x="764.160156"/>
      <use xlink:href="#DejaVuSans-3d" x="795.947266"/>
      <use xlink:href="#DejaVuSans-20" x="879.736328"/>
      <use xlink:href="#DejaVuSans-30" x="911.523438"/>
      <use xlink:href="#DejaVuSans-2e" x="975.146484"/>
      <use xlink:href="#DejaVuSans-39" x="1006.933594"/>
      <use xlink:href="#DejaVuSans-39" x="1070.556641"/>
      <use xlink:href="#DejaVuSans-38" x="1134.179688"/>
      <use xlink:href="#DejaVuSans-34" x="1197.802734"/>
      <use xlink:href="#DejaVuSans-29" x="1261.425781"/>
     </g>
    </g>
    <g id="line2d_25">
     <path d="M 427.039062 404.624063 
L 437.039062 404.624063 
L 447.039062 404.624063 
" style="fill: none; stroke: #9467bd; stroke-width: 2; stroke-linecap: square"/>
    </g>
    <g id="text_20">
     <!-- Random Forest (AUC = 0.9991) -->
     <g transform="translate(455.039062 408.124063) scale(0.1 -0.1)">
      <defs>
       <path id="DejaVuSans-64" d="M 2906 2969 
L 2906 4863 
L 3481 4863 
L 3481 0 
L 2906 0 
L 2906 525 
Q 2725 213 2448 61 
Q 2172 -91 1784 -91 
Q 1150 -91 751 415 
Q 353 922 353 1747 
Q 353 2572 751 3078 
Q 1150 3584 1784 3584 
Q 2172 3584 2448 3432 
Q 2725 3281 2906 2969 
z
M 947 1747 
Q 947 1113 1208 752 
Q 1469 391 1925 391 
Q 2381 391 2643 752 
Q 2906 1113 2906 1747 
Q 2906 2381 2643 2742 
Q 2381 3103 1925 3103 
Q 1469 3103 1208 2742 
Q 947 2381 947 1747 
z
" transform="scale(0.015625)"/>
       <path id="DejaVuSans-6d" d="M 3328 2828 
Q 3544 3216 3844 3400 
Q 4144 3584 4550 3584 
Q 5097 3584 5394 3201 
Q 5691 2819 5691 2113 
L 5691 0 
L 5113 0 
L 5113 2094 
Q 5113 2597 4934 2840 
Q 4756 3084 4391 3084 
Q 3944 3084 3684 2787 
Q 3425 2491 3425 1978 
L 3425 0 
L 2847 0 
L 2847 2094 
Q 2847 2600 2669 2842 
Q 2491 3084 2119 3084 
Q 1678 3084 1418 2786 
Q 1159 2488 1159 1978 
L 1159 0 
L 581 0 
L 581 3500 
L 1159 3500 
L 1159 2956 
Q 1356 3278 1631 3431 
Q 1906 3584 2284 3584 
Q 2666 3584 2933 3390 
Q 3200 3197 3328 2828 
z
" transform="scale(0.015625)"/>
      </defs>
      <use xlink:href="#DejaVuSans-52"/>
      <use xlink:href="#DejaVuSans-61" x="67.232422"/>
      <use xlink:href="#DejaVuSans-6e" x="128.511719"/>
      <use xlink:href="#DejaVuSans-64" x="191.890625"/>
      <use xlink:href="#DejaVuSans-6f" x="255.367188"/>
      <use xlink:href="#DejaVuSans-6d" x="316.548828"/>
      <use xlink:href="#DejaVuSans-20" x="413.960938"/>
      <use xlink:href="#DejaVuSans-46" x="445.748047"/>
      <use xlink:href="#DejaVuSans-6f" x="499.642578"/>
      <use xlink:href="#DejaVuSans-72" x="560.824219"/>
      <use xlink:href="#DejaVuSans-65" x="599.6875"/>
      <use xlink:href="#DejaVuSans-73" x="661.210938"/>
      <use xlink:href="#DejaVuSans-74" x="713.310547"/>
      <use xlink:href="#DejaVuSans-20" x="752.519531"/>
      <use xlink:href="#DejaVuSans-28" x="784.306641"/>
      <use xlink:href="#DejaVuSans-41" x="823.320312"/>
      <use xlink:href="#DejaVuSans-55" x="891.728516"/>
      <use xlink:href="#DejaVuSans-43" x="964.921875"/>
      <use xlink:href="#DejaVuSans-20" x="1034.746094"/>
      <use xlink:href="#DejaVuSans-3d" x="1066.533203"/>
      <use xlink:href="#DejaVuSans-20" x="1150.322266"/>
      <use xlink:href="#DejaVuSans-30" x="1182.109375"/>
      <use xlink:href="#DejaVuSans-2e" x="1245.732422"/>
      <use xlink:href="#DejaVuSans-39" x="1277.519531"/>
      <use xlink:href="#DejaVuSans-39" x="1341.142578"/>
      <use xlink:href="#DejaVuSans-39" x="1404.765625"/>
      <use xlink:href="#DejaVuSans-31" x="1468.388672"/>
      <use xlink:href="#DejaVuSans-29" x="1532.011719"/>
     </g>
    </g>
    <g id="line2d_26">
     <path d="M 427.039062 419.302188 
L 437.039062 419.302188 
L 447.039062 419.302188 
" style="fill: none; stroke: #8c564b; stroke-width: 2; stroke-linecap: square"/>
    </g>
    <g id="text_21">
     <!-- CART (AUC = 0.9811) -->
     <g transform="translate(455.039062 422.802188) scale(0.1 -0.1)">
      <use xlink:href="#DejaVuSans-43"/>
      <use xlink:href="#DejaVuSans-41" x="69.824219"/>
      <use xlink:href="#DejaVuSans-52" x="138.232422"/>
      <use xlink:href="#DejaVuSans-54" x="200.464844"/>
      <use xlink:href="#DejaVuSans-20" x="261.548828"/>
      <use xlink:href="#DejaVuSans-28" x="293.335938"/>
      <use xlink:href="#DejaVuSans-41" x="332.349609"/>
      <use xlink:href="#DejaVuSans-55" x="400.757812"/>
      <use xlink:href="#DejaVuSans-43" x="473.951172"/>
      <use xlink:href="#DejaVuSans-20" x="543.775391"/>
      <use xlink:href="#DejaVuSans-3d" x="575.5625"/>
      <use xlink:href="#DejaVuSans-20" x="659.351562"/>
      <use xlink:href="#DejaVuSans-30" x="691.138672"/>
      <use xlink:href="#DejaVuSans-2e" x="754.761719"/>
      <use xlink:href="#DejaVuSans-39" x="786.548828"/>
      <use xlink:href="#DejaVuSans-38" x="850.171875"/>
      <use xlink:href="#DejaVuSans-31" x="913.794922"/>
      <use xlink:href="#DejaVuSans-31" x="977.417969"/>
      <use xlink:href="#DejaVuSans-29" x="1041.041016"/>
     </g>
    </g>
    <g id="line2d_27">
     <path d="M 427.039062 433.980313 
L 437.039062 433.980313 
L 447.039062 433.980313 
" style="fill: none; stroke: #e377c2; stroke-width: 2; stroke-linecap: square"/>
    </g>
    <g id="text_22">
     <!-- K-Nearest Neighbors (AUC = 0.9740) -->
     <g transform="translate(455.039062 437.480313) scale(0.1 -0.1)">
      <defs>
       <path id="DejaVuSans-2d" d="M 313 2009 
L 1997 2009 
L 1997 1497 
L 313 1497 
L 313 2009 
z
" transform="scale(0.015625)"/>
       <path id="DejaVuSans-4e" d="M 628 4666 
L 1478 4666 
L 3547 763 
L 3547 4666 
L 4159 4666 
L 4159 0 
L 3309 0 
L 1241 3903 
L 1241 0 
L 628 0 
L 628 4666 
z
" transform="scale(0.015625)"/>
       <path id="DejaVuSans-62" d="M 3116 1747 
Q 3116 2381 2855 2742 
Q 2594 3103 2138 3103 
Q 1681 3103 1420 2742 
Q 1159 2381 1159 1747 
Q 1159 1113 1420 752 
Q 1681 391 2138 391 
Q 2594 391 2855 752 
Q 3116 1113 3116 1747 
z
M 1159 2969 
Q 1341 3281 1617 3432 
Q 1894 3584 2278 3584 
Q 2916 3584 3314 3078 
Q 3713 2572 3713 1747 
Q 3713 922 3314 415 
Q 2916 -91 2278 -91 
Q 1894 -91 1617 61 
Q 1341 213 1159 525 
L 1159 0 
L 581 0 
L 581 4863 
L 1159 4863 
L 1159 2969 
z
" transform="scale(0.015625)"/>
      </defs>
      <use xlink:href="#DejaVuSans-4b"/>
      <use xlink:href="#DejaVuSans-2d" x="55.076172"/>
      <use xlink:href="#DejaVuSans-4e" x="91.160156"/>
      <use xlink:href="#DejaVuSans-65" x="165.964844"/>
      <use xlink:href="#DejaVuSans-61" x="227.488281"/>
      <use xlink:href="#DejaVuSans-72" x="288.767578"/>
      <use xlink:href="#DejaVuSans-65" x="327.630859"/>
      <use xlink:href="#DejaVuSans-73" x="389.154297"/>
      <use xlink:href="#DejaVuSans-74" x="441.253906"/>
      <use xlink:href="#DejaVuSans-20" x="480.462891"/>
      <use xlink:href="#DejaVuSans-4e" x="512.25"/>
      <use xlink:href="#DejaVuSans-65" x="587.054688"/>
      <use xlink:href="#DejaVuSans-69" x="648.578125"/>
      <use xlink:href="#DejaVuSans-67" x="676.361328"/>
      <use xlink:href="#DejaVuSans-68" x="739.837891"/>
      <use xlink:href="#DejaVuSans-62" x="803.216797"/>
      <use xlink:href="#DejaVuSans-6f" x="866.693359"/>
      <use xlink:href="#DejaVuSans-72" x="927.875"/>
      <use xlink:href="#DejaVuSans-73" x="968.988281"/>
      <use xlink:href="#DejaVuSans-20" x="1021.087891"/>
      <use xlink:href="#DejaVuSans-28" x="1052.875"/>
      <use xlink:href="#DejaVuSans-41" x="1091.888672"/>
      <use xlink:href="#DejaVuSans-55" x="1160.296875"/>
      <use xlink:href="#DejaVuSans-43" x="1233.490234"/>
      <use xlink:href="#DejaVuSans-20" x="1303.314453"/>
      <use xlink:href="#DejaVuSans-3d" x="1335.101562"/>
      <use xlink:href="#DejaVuSans-20" x="1418.890625"/>
      <use xlink:href="#DejaVuSans-30" x="1450.677734"/>
      <use xlink:href="#DejaVuSans-2e" x="1514.300781"/>
      <use xlink:href="#DejaVuSans-39" x="1546.087891"/>
      <use xlink:href="#DejaVuSans-37" x="1609.710938"/>
      <use xlink:href="#DejaVuSans-34" x="1673.333984"/>
      <use xlink:href="#DejaVuSans-30" x="1736.957031"/>
      <use xlink:href="#DejaVuSans-29" x="1800.580078"/>
     </g>
    </g>
   </g>
  </g>
 </g>
 <defs>
  <clipPath id="p41eb98398b">
   <rect x="90" y="60.48" width="558" height="388.08"/>
  </clipPath>
 </defs>
</svg>
